<svg xmlns="http://www.w3.org/2000/svg" xmlns:xlink="http://www.w3.org/1999/xlink" viewBox="0 0 109.81 77.28"><defs><style>.cls-1{fill:none;}.cls-2{isolation:isolate;}.cls-3{fill:#a6241b;}.cls-4{fill:#ff9a15;}.cls-5{fill:#c97200;}.cls-6{fill:#995300;}.cls-7{fill:#ed8c00;}.cls-8{fill:#c7bca5;}.cls-15,.cls-18,.cls-9{mix-blend-mode:multiply;}.cls-9{fill:url(#linear-gradient);}.cls-10{fill:#9b0704;}.cls-11,.cls-20{mix-blend-mode:hard-light;}.cls-11{fill:url(#linear-gradient-2);}.cls-12{clip-path:url(#clip-path);}.cls-13,.cls-21,.cls-35,.cls-36{mix-blend-mode:screen;}.cls-14{fill:#7a2822;}.cls-16{fill:#f5dbb5;}.cls-17{fill:#f3e6ca;}.cls-18{fill:url(#linear-gradient-3);}.cls-19{fill:#d81c06;}.cls-20{fill:url(#linear-gradient-4);}.cls-21{fill:url(#linear-gradient-5);}.cls-22{fill:#ed85c3;}.cls-23{fill:#f7a8db;}.cls-24{fill:#509b04;}.cls-25{fill:#94cf21;}.cls-26{fill:#edc0db;}.cls-27{fill:#f7d4eb;}.cls-28{fill:#3a7003;}.cls-29{fill:#6c9618;}.cls-30{fill:#c989b3;}.cls-31{fill:#b86797;}.cls-32{fill:#ba97ac;}.cls-33{fill:#d4a5c4;}.cls-34{fill:#ba8a11;}.cls-35{fill:url(#linear-gradient-6);}.cls-36{fill:url(#linear-gradient-7);}</style><linearGradient id="linear-gradient" x1="86.79" y1="50.73" x2="108.29" y2="62.56" gradientUnits="userSpaceOnUse"><stop offset="0" stop-color="#e6ccbc"/><stop offset="1" stop-color="#fff"/></linearGradient><linearGradient id="linear-gradient-2" x1="95.32" y1="73.43" x2="97.99" y2="35.43" gradientUnits="userSpaceOnUse"><stop offset="0" stop-color="#e39c0d"/><stop offset="1" stop-color="gray"/></linearGradient><clipPath id="clip-path"><path class="cls-1" d="M98,32.17s-.09,0-.19-.05l.08-.08h0a28.63,28.63,0,0,0-1.77-5.16,6,6,0,0,0-.54-1.47A10.78,10.78,0,0,0,93.67,23a7.24,7.24,0,0,0-3.25-2.15c-.59-2.09-3.33-3.6-6.85-4.51a4.72,4.72,0,0,0-1.65-.78,16.86,16.86,0,0,0-2.85,0,1.18,1.18,0,0,0-.1-.3,10.7,10.7,0,0,0-2.7-2.82,6.92,6.92,0,0,0-1.93-1A16.28,16.28,0,0,0,72,10.3a7.53,7.53,0,0,0-2.48-1.37,23.35,23.35,0,0,0-4.17-.87,6.8,6.8,0,0,0-3,1.14,12.43,12.43,0,0,0-8,4.16,4.39,4.39,0,0,0-.73-.33,17.48,17.48,0,0,0-8-2.25,4.08,4.08,0,0,0-1.77-.41,13.78,13.78,0,0,0-3.16.88c-.46.11-.91.23-1.36.36a16.31,16.31,0,0,0-2.51.8,12,12,0,0,0-1.74,1,22.92,22.92,0,0,0-3.55,2.43c-.25.2-.5.4-.73.61a24.81,24.81,0,0,0-10-1.55,4.19,4.19,0,0,0-2.18-.3A3.51,3.51,0,0,0,16.9,16a6.51,6.51,0,0,0-1.58,1.14c-3,3-2.33,7.36,0,11.24.07.13.14.27.22.4a3.27,3.27,0,0,0-.83.43A9.81,9.81,0,0,0,11,31.66a2.66,2.66,0,0,0-.77.69,4.4,4.4,0,0,0-.59,1.3A9.86,9.86,0,0,0,9,35.35H9l-.17.08a.29.29,0,0,0,0-.09,6,6,0,0,0-1,.61c-3.43,1.93-5.09,5-4.65,7.91a4.39,4.39,0,0,0,.18,1c1.38.56,1.69.66,2.78.13l.57,0v0c1.29.8,1.77,1,3,.19h0c0,.06,0,.13.06.2,2.41.93,2.74.94,5.28.45,0-.09-.1-.19-.15-.29H15l1,.07a2.1,2.1,0,0,0,2,.25c.13-.38.24-.78.35-1.18a36.84,36.84,0,0,1,2-4.4c.29-.42.57-.83.83-1.24a28.4,28.4,0,0,1,2.82.82c.26-.46.51-.93.76-1.4a21.15,21.15,0,0,1,1.89-2.44l.09,0c.33-.37.65-.77,1-1.15l.53-.49.34.21c.57-.49,1.17-1.36,1.83-1.9l.26-.19h0a.25.25,0,0,1,0,.08c.23-.15.45-.31.67-.48a22.17,22.17,0,0,1,3.72-1.81,10.65,10.65,0,0,0,2.92.05,2.78,2.78,0,0,0,.51-1.05,26.56,26.56,0,0,1,3.27-.54s0,0,0,.06c.75-.08,1.61-.17,2.42-.2a.1.1,0,0,1,0,0h.21l.07.31a3.62,3.62,0,0,1,.41-.27l0-.05h.11l-.09.05c.18.33.35.63.53.63,1.91,0,3.69-.47,5.32-.16l.07,0h.08l0,0a21.76,21.76,0,0,1,2.59.68,18.82,18.82,0,0,1,2.47.82h0l.22.09a23.2,23.2,0,0,1,10.52,9.7l-.07.08a27.78,27.78,0,0,1,2,4.42,1.23,1.23,0,0,0,.12-.26.61.61,0,0,1,.05.12,23.3,23.3,0,0,1,1.19,4l.43,0a1.7,1.7,0,0,0,1.55.12l2.52.18a2.69,2.69,0,0,0,1.9.22l.07-.07h0c-.12.14-.25.28-.38.41,1.44.88,1.92-.08,3.6,0a7.91,7.91,0,0,0,1.91-.08l1.48.12H83l.23.38.41-.33,3.57.26c.83-.45,1.69-.88,2.56-1.3l1-.48A8.08,8.08,0,0,0,92.36,48a2.87,2.87,0,0,0,0-.92c.06-.3.12-.59.19-.9a4,4,0,0,1-1.16-.62c-.19-.26-.37-.54-.59-.79l-.2-.24c-.06-.26-.11-.52-.16-.79.15.18.3.36.46.53a12.91,12.91,0,0,0-.58-1.63A31.23,31.23,0,0,1,91,33.81a6.21,6.21,0,0,0,.53-1.28c.24-.9.36-1.66.47-2.27a4.22,4.22,0,0,1,.78-1.44,23.91,23.91,0,0,1,1.49,3.28c.25.64.57,1.17.87,1.82s.32,1,.48,1.58a13.33,13.33,0,0,1,1.31-2.24C97.26,32.88,97.65,32.53,98,32.17ZM45.28,27.62s0,0,0,0C45,26,45,24.79,43.12,24a19.61,19.61,0,0,1,2.63-1.71l.32-.14a6.69,6.69,0,0,1,3.32-.91c-.19.94-1.07,1.78-2,3.14a6.27,6.27,0,0,0-.64,1.75A15.89,15.89,0,0,1,45.28,27.62ZM14.07,43.53a12.06,12.06,0,0,1-.73-5.14,20,20,0,0,1,3.52.21l.95,0a25,25,0,0,0-2.53,3.22A14.62,14.62,0,0,0,14.07,43.53ZM38.51,16.74a20.34,20.34,0,0,1,2.16-.84,5.22,5.22,0,0,0,2,.23,12.56,12.56,0,0,1,4-.31,15.49,15.49,0,0,0,2.52,0,3,3,0,0,1,1.38,1,11.17,11.17,0,0,0-1.69.3,4.6,4.6,0,0,0-1.63.21c-1,.34-2.3.25-3.39.83a3.3,3.3,0,0,0-1.07,1.63c-.45.27-.91.56-1.38.88-.24.15-.46.32-.69.48a2.79,2.79,0,0,0-.78-.15,35.35,35.35,0,0,0-4.23-2.58,1.89,1.89,0,0,0,.2-.2A20.08,20.08,0,0,1,38.51,16.74Zm21.2-.87a6.87,6.87,0,0,1,2.82-1.35,8.7,8.7,0,0,0,2-1.09,15.8,15.8,0,0,1,2.46.08,7.19,7.19,0,0,0,2.13,1.34,14.62,14.62,0,0,0,2.78.07l.26.16c-1,.13-2,.36-2.86.52a6.53,6.53,0,0,0-1.78.66A7.73,7.73,0,0,0,64.27,18a3.06,3.06,0,0,0-.8.81,10.23,10.23,0,0,0-4.14-1.05,5.33,5.33,0,0,0-1.89.07,2.76,2.76,0,0,1,.17-.9A17.5,17.5,0,0,0,59.71,15.87Zm19.58,2.58A17,17,0,0,1,87,20.85a2.5,2.5,0,0,0-.82.64,7.13,7.13,0,0,0-1.86,1.67h0c-.17.08-.36.14-.53.21l.08-.11a9.68,9.68,0,0,1-2.86.57c-.79.15-1.58.45-2.4.61-.31,0-.62,0-.93,0A10.22,10.22,0,0,0,79.29,18.45Zm-4.7,4.25c-.36.48-.78.95-1.14,1.36-.49-.1-1-.21-1.42-.34a5.37,5.37,0,0,0-1.28-.85,15.89,15.89,0,0,0-2-.49,9.93,9.93,0,0,1-1-.7,3.34,3.34,0,0,1-.4-.35s0,0,0,0l0-.06c-.26-.22-.54-.42-.8-.62.87-1.14,4-2,7.69-2.25,0,0,0,0,0,.06.2.6.59,1.17.82,1.75A6.31,6.31,0,0,1,74.59,22.7Zm-43.28.89a18.3,18.3,0,0,1,1.31-2l.88.49c1,.65,2.07,1.45,3.22,2.24a31,31,0,0,0-4.83,5.32A6.66,6.66,0,0,1,31.31,23.59Zm-3.66-3.51c-.17.38-.31.77-.45,1.17-1.45,2.89-1.71,5.91.09,8.08-.74-.23-1.5-.43-2.28-.59a2.86,2.86,0,0,0-.83-.3,10.34,10.34,0,0,0-1.76-.11c-.49,0-1-.08-1.47-.09-2.71-3.43-2-10.13,5-9.14A11.21,11.21,0,0,0,27.65,20.08Zm-9.3,13.85a6.48,6.48,0,0,0-1.6.09c-.49,0-1,0-1.43,0a6.74,6.74,0,0,1,3.22-1.69h0l.09.08,0,.14.16,0a20.55,20.55,0,0,0,1.62,1.34,6.32,6.32,0,0,0,.81.66l-1.61-.27A5,5,0,0,0,18.35,33.93Zm3,.61h0Zm-6.85,10h0a.78.78,0,0,0,0,.14ZM8.94,35.28l-.11.06v0Z"/></clipPath><linearGradient id="linear-gradient-3" x1="-9.74" y1="37.22" x2="85.01" y2="66.47" xlink:href="#linear-gradient"/><linearGradient id="linear-gradient-4" x1="43.21" y1="71.27" x2="46.46" y2="42.52" gradientUnits="userSpaceOnUse"><stop offset="0" stop-color="#ffbb0f"/><stop offset="1" stop-color="gray"/></linearGradient><linearGradient id="linear-gradient-5" x1="16.76" y1="20.54" x2="38.76" y2="56.04" gradientUnits="userSpaceOnUse"><stop offset="0" stop-color="#fff"/><stop offset="1"/></linearGradient><linearGradient id="linear-gradient-6" x1="42.5" y1="86.51" x2="47.75" y2="54.01" gradientUnits="userSpaceOnUse"><stop offset="0" stop-color="#ffcba6"/><stop offset="1"/></linearGradient><linearGradient id="linear-gradient-7" x1="95.49" y1="75.2" x2="93.99" y2="53.2" gradientUnits="userSpaceOnUse"><stop offset="0" stop-color="#ffa769"/><stop offset="1"/></linearGradient></defs><title>la-du-zi</title><g class="cls-2"><g id="Layer_2" data-name="Layer 2"><g id="fast_food" data-name="fast food"><path class="cls-3" d="M109.81,41.14S64.46,36.92,26.58,36L3.34,44.8l83.89,5.37Z"/><path class="cls-4" d="M89.7,25.41c-2,.1-3.7,2.23-3.37,5.39a3.5,3.5,0,0,0-.54-.29,8,8,0,0,0-3.73-.66,13.62,13.62,0,0,1,.38-2.7,10.42,10.42,0,0,1,1.89-4h0A6.55,6.55,0,0,1,87.23,21a5.1,5.1,0,0,1,3.19-.11c2.85.83,5.76,4.19,7.5,11.16h0a11.31,11.31,0,0,0-2.35,3.46,30.49,30.49,0,0,0-2.69-6.79,8.63,8.63,0,0,0-2.47-2.94A2.14,2.14,0,0,0,89.7,25.41Z"/><path class="cls-4" d="M92.5,46.14c-.12.55-.24,1.09-.35,1.62-.79.36-1.58.73-2.36,1.11a6.07,6.07,0,0,1-3.11-4,21.52,21.52,0,0,0,1.65-4.61,11.74,11.74,0,0,0,2.29,4.61A4.3,4.3,0,0,0,92.5,46.14Z"/><path class="cls-5" d="M90.42,25.77a8.63,8.63,0,0,1,2.47,2.94c-1.14.38-3.73,10.18-2.27,16.14a11.74,11.74,0,0,1-2.29-4.61c.73-3.17.63-6.28-.71-8.21h0C88.12,27.24,90.42,25.77,90.42,25.77Z"/><path class="cls-6" d="M89.7,25.41a2.14,2.14,0,0,1,.72.36s-2.3,1.47-2.8,6.26a4.1,4.1,0,0,0-1.29-1.23C86,27.64,87.7,25.51,89.7,25.41Z"/><path class="cls-5" d="M90.42,20.87a5.1,5.1,0,0,0-3.19.11,16.83,16.83,0,0,0-7.94-2.53,8.22,8.22,0,0,0-.85-2.94C84.17,16,89.56,17.83,90.42,20.87Z"/><path class="cls-6" d="M89.79,48.87c-.87.42-1.73.85-2.56,1.3l-4.3-.31h0a15.38,15.38,0,0,0,3.75-5A6.07,6.07,0,0,0,89.79,48.87Z"/><path class="cls-7" d="M88.33,40.24a21.52,21.52,0,0,1-1.65,4.61,15.38,15.38,0,0,1-3.75,5h0l-6.74-.51a28,28,0,0,0,5.32-6.62c1.4-2.62,1.44-4.6.91-6a4.35,4.35,0,0,0-.36-.79,6.38,6.38,0,0,0-5.28.42,19,19,0,0,0-7.43,7.29c-.24.4-.49.82-.73,1.25a29,29,0,0,0-2-4.29c.66-.9,1.34-1.76,2-2.56a33.23,33.23,0,0,1,3.46-3.46,25.62,25.62,0,0,1,3.27-2.39,14.45,14.45,0,0,1,6.71-2.3,8,8,0,0,1,3.73.66,3.5,3.5,0,0,1,.54.29A4.1,4.1,0,0,1,87.62,32h0C89,34,89.06,37.07,88.33,40.24Z"/><path class="cls-5" d="M84.33,23.16a10.42,10.42,0,0,0-1.89,4h0a15.12,15.12,0,0,1-10,0h0a28.38,28.38,0,0,0-4.67-5.47,13.83,13.83,0,0,0,6,2.44,22.29,22.29,0,0,0,3.94.36A15.69,15.69,0,0,0,84.33,23.16Z"/><path class="cls-5" d="M76.93,43.18a4.69,4.69,0,0,1-1.58-1.09A7.06,7.06,0,0,0,77,38a4.54,4.54,0,0,0,5.45-1.32c.53,1.45.49,3.43-.91,6A4.91,4.91,0,0,1,76.93,43.18Z"/><path class="cls-6" d="M82.43,27.15h0a13.62,13.62,0,0,0-.38,2.7,14.45,14.45,0,0,0-6.71,2.3,43.8,43.8,0,0,0-2.91-5A15.12,15.12,0,0,0,82.43,27.15Z"/><path class="cls-6" d="M82.06,35.89a4.35,4.35,0,0,1,.36.79A4.54,4.54,0,0,1,77,38a4.82,4.82,0,0,0-.19-1.69A6.38,6.38,0,0,1,82.06,35.89Z"/><path class="cls-7" d="M79.29,18.45a10.22,10.22,0,0,1-1.6,6,22.29,22.29,0,0,1-3.94-.36,6.28,6.28,0,0,0,1.07-5.87,5.93,5.93,0,0,0-2.14-2.83,9.17,9.17,0,0,0-3.33-1.5c-6.48-1.6-12,.75-11.93,4a6,6,0,0,0-.59.23,4.63,4.63,0,0,0-1,.58,4.57,4.57,0,0,0-3-1.85h0a6.39,6.39,0,0,1,1.42-3.5c2.54-3.27,8.23-5.42,15-3.9,4.63,1,7.7,3.25,9.09,6A8.22,8.22,0,0,1,79.29,18.45Z"/><path class="cls-4" d="M76.93,43.18a4.91,4.91,0,0,0,4.58-.45,28,28,0,0,1-5.32,6.62l-6.38-.47A13.34,13.34,0,0,1,76.93,43.18Z"/><path class="cls-4" d="M76.78,36.31A4.82,4.82,0,0,1,77,38a7.06,7.06,0,0,1-1.62,4.09,5.24,5.24,0,0,1-6,1.51A19,19,0,0,1,76.78,36.31Z"/><path class="cls-6" d="M75.35,42.09a4.69,4.69,0,0,0,1.58,1.09,13.34,13.34,0,0,0-7.12,5.7,23.3,23.3,0,0,0-1.19-4c.24-.43.49-.85.73-1.25A5.24,5.24,0,0,0,75.35,42.09Z"/><path class="cls-5" d="M74.82,18.25l-.3.11c-3.84.23-7.11,1.12-8,2.31a16.49,16.49,0,0,0-2.91-1.83c.88-2,4.62-3.14,9-3.42A5.93,5.93,0,0,1,74.82,18.25Z"/><path class="cls-4" d="M60,26.36a21.89,21.89,0,0,0,1.94,4.44h0a19.67,19.67,0,0,0,6.7,7.2c-.7.8-1.38,1.66-2,2.56A23.35,23.35,0,0,0,56,30.79a14.22,14.22,0,0,1-2.25-5.86c-.32-2.64.43-4.89,2.11-6.16a4.63,4.63,0,0,1,1-.58,6,6,0,0,1,.59-.23,8.85,8.85,0,0,1,6.22.88,16.49,16.49,0,0,1,2.91,1.83c.26.19.53.41.79.64,0,0,0,0,0,0a3.34,3.34,0,0,0,.4.35,28.38,28.38,0,0,1,4.67,5.47h0a43.8,43.8,0,0,1,2.91,5,25.62,25.62,0,0,0-3.27,2.39c-.53-.9-1-1.73-1.56-2.51-.82-1.25-1.61-2.35-2.36-3.32-4.87-6.31-8-6.79-8.59-6.81A8.25,8.25,0,0,0,60,26.36Z"/><path class="cls-6" d="M70.52,32c.51.78,1,1.61,1.56,2.51A33.23,33.23,0,0,0,68.62,38a19.67,19.67,0,0,1-6.7-7.2A17.72,17.72,0,0,0,70.52,32Z"/><path class="cls-5" d="M70.52,32a17.72,17.72,0,0,1-8.6-1.23h0A21.89,21.89,0,0,1,60,26.36a17.59,17.59,0,0,0,8.19,2.35C68.91,29.68,69.7,30.78,70.52,32Z"/><path class="cls-7" d="M68.16,28.71A17.59,17.59,0,0,1,60,26.36a8.25,8.25,0,0,1-.4-4.46C60.14,21.92,63.29,22.4,68.16,28.71Z"/><path class="cls-5" d="M53.76,24.93A14.22,14.22,0,0,0,56,30.79a24.61,24.61,0,0,0-5.44-1.67A15.16,15.16,0,0,0,53.76,24.93Z"/><path class="cls-4" d="M52.88,16.92a4.57,4.57,0,0,1,3,1.85c-1.68,1.27-2.43,3.52-2.11,6.16a15.16,15.16,0,0,1-3.19,4.19,29,29,0,0,0-5.29-.47l-1.21,0v0a15.56,15.56,0,0,0,1.21-1,12.75,12.75,0,0,0,4.2-6.47c-1.4-.08-3.66.75-6.45,2.9a33.79,33.79,0,0,0-3,2.6c-.88.87-1.8,1.86-2.74,3a22.9,22.9,0,0,0-6.8,3A2.68,2.68,0,0,1,31,31a15,15,0,0,1,.85-1.38,31.23,31.23,0,0,1,5-5.43,37.66,37.66,0,0,1,3.23-2.59c.44-.32.88-.63,1.34-.93,3.7-2.46,6.77-3.63,9.16-3.85a7.89,7.89,0,0,1,2.31.09Z"/><path class="cls-5" d="M54.3,13.41a6.39,6.39,0,0,0-1.42,3.5,7.89,7.89,0,0,0-2.31-.09c-.62-1.08-5.5-3.11-12.06-.08a19.93,19.93,0,0,0-3,1.76,32.43,32.43,0,0,0-4.62-2.05C36.45,11.33,45.9,8.24,54.3,13.41Z"/><path class="cls-7" d="M45.28,27.62a15.56,15.56,0,0,1-1.21,1v0c-.81,0-1.58.08-2.33.17.1-.88-1.67-2.19-1.67-2.19a33.79,33.79,0,0,1,3-2.6A9,9,0,0,1,45.28,27.62Z"/><path class="cls-6" d="M40.07,26.65s1.77,1.31,1.67,2.19a26.91,26.91,0,0,0-4.41.78C38.27,28.51,39.19,27.52,40.07,26.65Z"/><path class="cls-7" d="M32.45,21.48a24.38,24.38,0,0,0-4.3-1.86C19.09,16.76,18,24.47,21,28.24a16.84,16.84,0,0,0-5.3.64c-2.6-4-3.41-8.66-.33-11.75s9.5-2.8,15.54-.68a32.43,32.43,0,0,1,4.62,2.05,25.25,25.25,0,0,1,4.59,3.1,37.66,37.66,0,0,0-3.23,2.59A46.07,46.07,0,0,0,32.45,21.48Z"/><path class="cls-5" d="M31.89,29.62A15,15,0,0,0,31,31a18.41,18.41,0,0,0-3.75-1.67c-2.15-2.58-1.37-6.37.86-9.71a24.38,24.38,0,0,1,4.3,1.86A7,7,0,0,0,31.89,29.62Z"/><path class="cls-4" d="M13.34,38.34A13.54,13.54,0,0,0,15,45.62l-5.16-.36a23.42,23.42,0,0,1-1.11-5.08A13.31,13.31,0,0,1,9,35.35a9.16,9.16,0,0,1,6.67-6.47,16.84,16.84,0,0,1,5.3-.64,22.65,22.65,0,0,1,6.34,1.09A18.41,18.41,0,0,1,31,31a2.68,2.68,0,0,0-.51,1.61,19,19,0,0,0-2.09,1.58c-3.92-2-7.32-2.46-9.9-1.86a6.5,6.5,0,0,0-5.2,6Z"/><path class="cls-7" d="M28.44,34.19A20,20,0,0,0,26.58,36a34.48,34.48,0,0,0-5.25-1.45h0a18.73,18.73,0,0,1-2.79-2.2h0C21.12,31.73,24.52,32.22,28.44,34.19Z"/><path class="cls-7" d="M26.58,36a21,21,0,0,0-2.78,3.84,22,22,0,0,0-10.46-1.5,6.72,6.72,0,0,1,2-4.32,26,26,0,0,1,6,.53A34.48,34.48,0,0,1,26.58,36Z"/><path class="cls-5" d="M18.05,38.38a23.93,23.93,0,0,0-3.89,5.38c.22.6.48,1.22.79,1.86l2.9.2A35,35,0,0,1,21,39,24.67,24.67,0,0,0,18.05,38.38Z"/><path class="cls-5" d="M9.79,45.26,6.68,45a5.1,5.1,0,0,1,2-4.85h0A23.42,23.42,0,0,0,9.79,45.26Z"/><path class="cls-5" d="M90.29,25.12c.58.39,1.17,2,2.16,3.72-.43.14-.41,1.57-1,3.69-.31,1.21-1.41,2.48-1.61,3.95a33.33,33.33,0,0,0,0,4.24c0,1.46.66,2.26,1,3.51a16.65,16.65,0,0,1-2.71-4c.34-1.45,1.14-2.87,1.09-4.18-.06-1.57-1.38-2.61-2.11-3.66,0,0,.18-.37.18-.38a15.45,15.45,0,0,1,.61-3.59C88.76,26.29,88.57,25.46,90.29,25.12Z"/><path class="cls-5" d="M90.34,20.78a4.64,4.64,0,0,0-3-.17,12.5,12.5,0,0,0-3.83-1.55,21.27,21.27,0,0,0-4-.84,7.07,7.07,0,0,0-1-2.69c1.16.1,2.36-.16,3.45.05S84,16.85,85.05,17.2a14.55,14.55,0,0,1,3.2,1.12A4.47,4.47,0,0,1,90.34,20.78Z"/><path class="cls-5" d="M83.88,23.26a9.5,9.5,0,0,0-2,3.75l.59.22a14,14,0,0,1-3.3,1c-1.24.14-2.4-.48-3.39-.6a11.43,11.43,0,0,1-3.22-.8s-.56.6-.56.59c-.72-1.06-1-2.31-1.73-3.17a25.42,25.42,0,0,0-2.8-2.45c.77.62,2.19.62,3.29,1s1.79,1.55,2.9,1.75a22.82,22.82,0,0,0,4-.08A18.61,18.61,0,0,0,81,23.83,9.68,9.68,0,0,0,83.88,23.26Z"/><path class="cls-5" d="M77,43c-1-.43-1.77.09-1.55-.86a7.45,7.45,0,0,0,1.4-4.34c1.36-.67,1.49.86,3.07.51a4.8,4.8,0,0,0,2.46-1.87,6.71,6.71,0,0,1,.08,3.34,10.07,10.07,0,0,1-1,3A4.59,4.59,0,0,1,77,43Z"/><path class="cls-5" d="M74.89,18.25c0,.16-.24-.23-.4-.21a24.3,24.3,0,0,0-4.16.88c-1.87.42-3.25.76-3.77,1.48A15.39,15.39,0,0,0,63.36,19c.38-.86,1.62-1.51,2.86-2.05a13.74,13.74,0,0,1,3.09-1.31,28.08,28.08,0,0,1,3.5-.58A6.8,6.8,0,0,1,74.89,18.25Z"/><path class="cls-5" d="M70.88,32.21a17.92,17.92,0,0,1-4.77-.1A12.08,12.08,0,0,1,62,30.62s-.11.2-.11.19a21.93,21.93,0,0,1-2-4.43,15.15,15.15,0,0,0,4,1.86c1.24.37,2.9.08,4.46.1C69.07,29.31,70.06,31,70.88,32.21Z"/><path class="cls-5" d="M53.61,24.79a14.17,14.17,0,0,0,.76,3.26,14.59,14.59,0,0,0,1.42,2.65,18.82,18.82,0,0,0-2.47-.82,21.76,21.76,0,0,0-2.59-.68C51.85,26.79,52.62,27,53.61,24.79Z"/><path class="cls-5" d="M54.4,13.4c-.84,1.07-.88,2.67-1,3.9-.69-.14-1.72-1.3-2.58-1.22-.31-.54-2,0-4.19-.26a12.56,12.56,0,0,0-4,.31c-1.25.24-3.12-.89-4.55-.23-1.12.53-1.75,2.08-2.65,2.73a32,32,0,0,0-4.68-2.14,23.13,23.13,0,0,1,3-2.17,22,22,0,0,1,3.08-1.91,21.49,21.49,0,0,1,3.48-1,20.17,20.17,0,0,1,3.55-1c1.19-.07,2.36.83,3.58,1a16.29,16.29,0,0,1,3.38.95C52,12.74,53.33,12.74,54.4,13.4Z"/><path class="cls-5" d="M31.74,29.66a6.46,6.46,0,0,0-.62.94,17.58,17.58,0,0,0-3.65-1.55,4.85,4.85,0,0,1-1.35-2.92,8.53,8.53,0,0,1,.59-3.36,15.54,15.54,0,0,1,1.35-3.44,29.29,29.29,0,0,1,4.69,2.05c-.91,1.28-2,2.72-2.08,4.08A6.81,6.81,0,0,0,31.74,29.66Z"/><path class="cls-5" d="M18.15,38.61A24.18,24.18,0,0,0,16,41a25.07,25.07,0,0,0-2,2.74c.22.61.75,1,1.06,1.63,1.4.37,1.47,1,2.86.59.4-1.19.65-2.56,1.17-3.71a37.8,37.8,0,0,1,2.11-3.32A25.54,25.54,0,0,0,18.15,38.61Z"/><path class="cls-5" d="M9.75,45.19c-1.31.86-1.76.69-3.09-.13a5.27,5.27,0,0,1,1.93-5l0,.11A23.45,23.45,0,0,0,9.75,45.19Z"/><path class="cls-7" d="M9,35.35H9a13.31,13.31,0,0,0-.3,4.83h0a5.1,5.1,0,0,0-2,4.85L3.34,44.8C2.24,41.29,4.33,37.37,9,35.35Z"/><path class="cls-4" d="M89.7,25.93a2.77,2.77,0,0,0-2.65,1.49,5.7,5.7,0,0,0-.56,3.38c-.17-.11-.27-.76-.46-.84-1.16-.51-3,.27-4.28.33a19.76,19.76,0,0,1,.49-3.18c.39-1.58,1.7-2.53,2.54-3.59h0c.82-1,1.28-2.36,2.37-2.75a5.24,5.24,0,0,1,3.23.21,6.68,6.68,0,0,1,3,1.72,12.18,12.18,0,0,1,2.25,2.69,25.2,25.2,0,0,1,1.07,3.36,33.07,33.07,0,0,1,1,3.33s.34.07.33.08a9.14,9.14,0,0,0-2.49,3,24.36,24.36,0,0,0-1.32-3,23.64,23.64,0,0,0-1.5-3.3c-1-1.73-1.55-2.91-2.13-3.3S90.11,25.93,89.7,25.93Z"/><path class="cls-4" d="M92.29,46.3c-.11.55.17,1.13.07,1.66-.8.36-1.75.36-2.53.74-2.53-1.13-3.3-1.22-3.22-3.85a22,22,0,0,0,1.75-4.6,12.21,12.21,0,0,0,2.39,4.48C91.26,45.31,91.55,46.06,92.29,46.3Z"/><path class="cls-7" d="M88.33,40.24a20.94,20.94,0,0,1-1.82,4.53c-.47,1-.21,2.42-.81,3.25a13.71,13.71,0,0,1-2.45,2.22l-.31-.52c-1.69-.12-1.71.22-3.4.1s-2.16.83-3.6,0c1.14-1.1,2-2.9,2.76-3.87,1-1.28,2.88-1.77,3.45-2.83s-.13-2.49,0-3.37c.24-1.23,1.07-2.36.76-3.21-.09-.28-.9-.07-1-.31-1.55-.66-3.54-1.42-5.44-.53-1,.46-1.21,2.27-2.18,3.09s-2.58.64-3.38,1.6a30.44,30.44,0,0,0-1.78,3.12c-.25.4-.44,1.1-.68,1.53a27.78,27.78,0,0,0-2-4.42c.66-.9,2-1.33,2.66-2.13a34.12,34.12,0,0,1,3.07-3.77,22.18,22.18,0,0,1,3.5-1.94c1.08-.66,1.56-2.45,2.63-2.84s2.63.46,3.76.41c1.31-.07,2.62-.46,3.78.05.19.08.27.4.44.51.51.31,1.36.42,1.69.92l.23-.16c.73,1.05.72,2.85.78,4.42A16.65,16.65,0,0,1,88.33,40.24Z"/><path class="cls-7" d="M78.83,18.49a8.05,8.05,0,0,1-.32,3,9.71,9.71,0,0,1-1,2.72c-1.32,0-3.26.64-4.54.4.64-.8,2.11-2.18,2.31-3.21s-.66-1.93-1-2.93S73.92,16,72.83,15.2c-.85-.63-2.33,0-3.7-.35-1.21-.29-2.14-1.76-3.25-1.8s-2.29,1.24-3.35,1.47a6.87,6.87,0,0,0-2.82,1.35c-1.1.79-2.86.89-2.83,2-.21.07.23.42,0,.51-.34.16-.29-.47-.58-.25-.64-.92-2.16-.71-3.51-1,0,0,1.08-.18,1.08-.19.08-1.22-.16-2.26.68-3.33a9.51,9.51,0,0,1,2.83-2.82,14.63,14.63,0,0,1,3.87-1.21c1.25-.27,2.59-1.57,4-1.55a23.35,23.35,0,0,1,4.17.87c1.31.29,2.3,1.42,3.36,1.89a14.45,14.45,0,0,1,3.42,1.6A10.7,10.7,0,0,1,79,15.24C79.44,16.17,78.74,17.46,78.83,18.49Z"/><path class="cls-4" d="M76.89,43.57c1.08.46,2.68-.16,4.6-1.28A24.34,24.34,0,0,1,79,46.12a37.47,37.47,0,0,1-2.75,3.31c-1.57.32-1.6-.4-3.2-.52s-1.8.77-3.08-.2a11.36,11.36,0,0,1,3-3.19A11.24,11.24,0,0,1,76.89,43.57Z"/><path class="cls-4" d="M76.78,36.29a4.84,4.84,0,0,1,0,1.7,6.8,6.8,0,0,1-1.48,4.06,5,5,0,0,1-2.75,1.54,4.79,4.79,0,0,1-3-.08,26.19,26.19,0,0,1,1.59-2.95,19.14,19.14,0,0,1,2.76-2.23A13.85,13.85,0,0,1,76.78,36.29Z"/><path class="cls-4" d="M60.2,26.29A20.19,20.19,0,0,0,61.64,31l.49-.28a21.58,21.58,0,0,0,2.16,2.47,19.94,19.94,0,0,0,1.82,2.73c.83.76,1.14,1.66,2.08,2.2a19.72,19.72,0,0,0-1.55,1.72A18.63,18.63,0,0,0,65.16,37a25.58,25.58,0,0,0-2.64-2.68A23.06,23.06,0,0,0,59.59,32a23,23,0,0,0-3.42-1.4c-.6-.94-2-1.38-2.4-2.3s1-2.49.84-3.46c-.15-1.23-.78-2.24-.48-3.24a5.55,5.55,0,0,1,1.64-2.95c.29-.23,1,.33,1.35.17s.05-.94.26-1a7.36,7.36,0,0,1,3.21.1,11.28,11.28,0,0,1,3,1,16.23,16.23,0,0,1,2.94,1.78c.26.2.55.4.81.62,0,0-.45.52-.44.51s.35.17.5.28c.83.74,2.08,1.15,2.92,2.15a35.4,35.4,0,0,1,2.12,2.93l-.52.36c.52.76,1.33,1.35,1.84,2.22s.42,1.28.87,2.18a16.18,16.18,0,0,0-2.61,1.89c-.53-.89-1.76-.49-2.26-1.27-.83-1.26-.61-3.05-1.36-4A27.22,27.22,0,0,0,65.62,26c-1.06-1.1-1.65-2.32-2.46-2.9a7.32,7.32,0,0,0-3.94-1.4C58.9,22.76,59.64,24.49,60.2,26.29Z"/><path class="cls-7" d="M67.87,28.53a15,15,0,0,1-4-.27,9.81,9.81,0,0,1-3.65-2c-.56-1.79-1.21-3.46-.9-4.53A7.91,7.91,0,0,1,63,23.33,24.48,24.48,0,0,1,65.65,26,28,28,0,0,1,67.87,28.53Z"/><path class="cls-4" d="M52.77,17.45c1.35.26,3.31.53,3.95,1.45-.9.68-3.1,1.29-3.45,2.43s.28,2.36.43,3.59c-1,2.18-.68,3.19-3.1,4.26-1.63-.31-3.41.16-5.32.16-.41,0-.79-1.54-1.19-1.53,0,0,.24,1.18.25,1.17.43-.34,1-.52,1.38-.88,1.1-1,1-2.8,1.67-3.74.93-1.36,1.81-2.2,2-3.14a6.69,6.69,0,0,0-3.32.91c-.92.46-2.33.58-3.43,1.42A30.87,30.87,0,0,0,39.39,26c-.89.87-.59,3.38-1.53,4.49-1.27.34-3.1-.36-4.18.11a22,22,0,0,0-3.13,2.13,2.58,2.58,0,0,1,.4-1.74c.21-.4,1.24-.37,1.59-.87a27.29,27.29,0,0,1,2.34-2.68,35.93,35.93,0,0,1,2.63-2.45c1-.87,1-3,2.18-3.87.44-.32,1.64.48,2.1.17,1-.67,1.16-2.6,2.07-3.08,1.09-.58,2.44-.49,3.39-.83,1.18-.42,2.39-.08,3.36-.17a11.26,11.26,0,0,1,2.47-.43C53.26,16.94,52.77,17.45,52.77,17.45Z"/><path class="cls-7" d="M45.27,27.62a14.16,14.16,0,0,1-1.24,1s0,.1,0,.1c-.81,0-1.67.12-2.42.2.1-.88-1.19-.9-1.61-2.25a38.49,38.49,0,0,1,3-2.71C45,24.77,45,26,45.27,27.62Z"/><path class="cls-7" d="M32.46,21.45c-1.59-.86-3.22-.85-4.49-1.25-1.57-.49-2.75-1.91-3.87-1.85a6.32,6.32,0,0,0-4.18,1.79c-.85,1-.59,2.95-.47,4.36a5,5,0,0,0,1,3.21c-1.84,0-3.14.71-4.79,1.21A15.41,15.41,0,0,1,14.06,25a8.26,8.26,0,0,1,.08-4,5.43,5.43,0,0,1,1.56-3.46c.91-.92,1.59-2.55,3-2.91,1.22-.31,2.73.72,4.19.76a22.75,22.75,0,0,1,4,0,30.63,30.63,0,0,1,3.83,1.34,32,32,0,0,1,4.81,1.62,30.15,30.15,0,0,1,5.08,3.22c-1.19.86-2.86,1.94-3.83,2.81C35.23,23.28,33.81,22.17,32.46,21.45Z"/><path class="cls-4" d="M13.09,38.32a11.57,11.57,0,0,0,0,3.89A24.3,24.3,0,0,0,15,45.9c-2.54.49-2.87.48-5.28-.45a25.11,25.11,0,0,1-1-5.27,12.67,12.67,0,0,1,.5-4.77,9.52,9.52,0,0,1,1.05-3.06c.65-.9,1.84-1.11,2.75-1.7s1.56-1.59,2.62-1.9A17.39,17.39,0,0,1,21,28.34a21.75,21.75,0,0,1,3.23.1c1.07.18,1.91,1.17,2.91,1.5,1.38.44,3.66,0,4.77.68-.44.8-1.44,1.72-1.35,2a22.74,22.74,0,0,0-2.07,2.1c-1.09-.55-2-2-3-2.35A17.08,17.08,0,0,0,22,31.47c-1.25-.13-2.47.58-3.48.82-1.3.3-2.8.47-3.64,1.28A7.77,7.77,0,0,0,13.09,38.32Z"/><path class="cls-7" d="M28.32,34.23a20.36,20.36,0,0,0-1.74,1.9,40.39,40.39,0,0,0-5.21-1.79l-.08.26a19,19,0,0,1-2.58-2.44l-.12.4a9.94,9.94,0,0,1,3.34-.3,16.09,16.09,0,0,1,3.27.84A20.84,20.84,0,0,1,28.32,34.23Z"/><path class="cls-7" d="M26.27,36.11a18.19,18.19,0,0,0-2.43,3.83,32.55,32.55,0,0,0-3.48-1,21.44,21.44,0,0,0-3.5-.36,18.43,18.43,0,0,0-3.61-.2,6.64,6.64,0,0,1,2.15-4.23,23,23,0,0,1,3-.24c1,.09,1.89.68,2.93.89A31.45,31.45,0,0,1,26.27,36.11Z"/><path class="cls-7" d="M8.94,35.28l-.1,0a13.44,13.44,0,0,0-.49,4.9l.42.1c-1.56,1.26-2.51,2.59-2.23,4.45-1.48.78-1.68.74-3.23.1a6.38,6.38,0,0,1,.33-3.94,7.82,7.82,0,0,1,2.13-3.23A11.24,11.24,0,0,1,8.94,35.28Z"/><path class="cls-8" d="M89.79,48.87c.78-.38,1.57-.75,2.36-1.11.11-.53.23-1.07.35-1.62A51.48,51.48,0,0,1,95.58,35.5,11.31,11.31,0,0,1,97.93,32a5.3,5.3,0,0,1,2.64-1.44c5.16-1.08,5.26,7.87,4.14,12.21,3.06-1.06,5.1-1.67,5.1-1.67-3.65,14.41-5.58,23-5.58,23-14.85,6.24-21.3,13.13-21.3,13.13l4.3-27.11C88.06,49.72,88.92,49.29,89.79,48.87Z"/><path class="cls-9" d="M89.79,48.87c.78-.38,1.57-.75,2.36-1.11.11-.53.23-1.07.35-1.62A51.48,51.48,0,0,1,95.58,35.5,11.31,11.31,0,0,1,97.93,32a5.3,5.3,0,0,1,2.64-1.44c5.16-1.08,5.26,7.87,4.14,12.21,3.06-1.06,5.1-1.67,5.1-1.67-3.65,14.41-5.58,23-5.58,23-14.85,6.24-21.3,13.13-21.3,13.13l4.3-27.11C88.06,49.72,88.92,49.29,89.79,48.87Z"/><path class="cls-10" d="M88.71,51.23c.56-.3,1.16-.59,1.78-.89.78-.38,1.55-.74,2.34-1.1l.75-.34.17-.82c.07-.36.15-.73.23-1.11l.11-.49a50.27,50.27,0,0,1,3-10.29,9.68,9.68,0,0,1,2-3,3.72,3.72,0,0,1,1.86-1,2.15,2.15,0,0,1,.49,0,1.3,1.3,0,0,1,1.12.59c1.38,1.78,1.43,6.52.62,9.67l-.76,2.93,2.87-1,2.28-.77C105,53.8,103.35,60.71,102.83,63A79.44,79.44,0,0,0,85.24,73.09Z"/><path class="cls-11" d="M88.71,51.23c.56-.3,1.16-.59,1.78-.89.78-.38,1.55-.74,2.34-1.1l.75-.34.17-.82c.07-.36.15-.73.23-1.11l.11-.49a50.27,50.27,0,0,1,3-10.29,9.68,9.68,0,0,1,2-3,3.72,3.72,0,0,1,1.86-1,2.15,2.15,0,0,1,.49,0,1.3,1.3,0,0,1,1.12.59c1.38,1.78,1.43,6.52.62,9.67l-.76,2.93,2.87-1,2.28-.77C105,53.8,103.35,60.71,102.83,63A79.44,79.44,0,0,0,85.24,73.09Z"/><g class="cls-12"><g class="cls-13"><path class="cls-14" d="M83,24.24c.08.81,2.33-.19,1.4-1S83,24.24,83,24.24Z"/><path class="cls-14" d="M83.45,36.69c.23-.24-.68-.66-.67-.16S83.45,36.69,83.45,36.69Z"/><path class="cls-14" d="M82,55.84c-.76-.19-.57,2.19.44,1.58S82,55.84,82,55.84Z"/><path class="cls-14" d="M82.82,26.5c.76-.48-1.34-2.22-1.65-.9S82.82,26.5,82.82,26.5Z"/><path class="cls-14" d="M81.43,55.48c-.12-.68-1.94.34-1.09.92S81.43,55.48,81.43,55.48Z"/><path class="cls-14" d="M82.66,22.65c-.56-1.64-4.72,1.55-2.39,2.71S82.66,22.65,82.66,22.65Z"/><path class="cls-14" d="M81,45.6c.32-.79-2.26-1-1.77.22S81,45.6,81,45.6Z"/><path class="cls-14" d="M80.94,46c.55-.91-2.56-1.62-2.2-.08S80.94,46,80.94,46Z"/><path class="cls-14" d="M79.14,30c1.28,1.15,3.34-3.62.76-3.5S79.14,30,79.14,30Z"/><path class="cls-14" d="M78.28,44.2c-1,.4,1.11,2.8,1.72,1.35S78.28,44.2,78.28,44.2Z"/><path class="cls-14" d="M73.08,42.57c-.55.83,2.37,1.61,2.08.15S73.08,42.57,73.08,42.57Z"/><path class="cls-14" d="M87,49.67c.41-.27-.76-1.19-.92-.47S87,49.67,87,49.67Z"/><path class="cls-14" d="M70.86,38.67c-1.92.59,1.62,5.5,3,2.86S70.86,38.67,70.86,38.67Z"/><path class="cls-14" d="M84.16,47.93c1.12.51,1.51-3.19-.22-2.56S84.16,47.93,84.16,47.93Z"/><path class="cls-14" d="M94.74,51.87c-1,.73,2.06,2.91,2.36,1.07S94.74,51.87,94.74,51.87Z"/><path class="cls-14" d="M73.73,38.39c-.56-.2-.61,1.61.21,1.24S73.73,38.39,73.73,38.39Z"/><path class="cls-14" d="M78.58,39.78c1.84-.68-1.88-5.3-3.12-2.64S78.58,39.78,78.58,39.78Z"/><path class="cls-14" d="M84.45,47.11c0,1.1,3.17,0,2-1.18S84.45,47.11,84.45,47.11Z"/><path class="cls-14" d="M92.27,53.84c-1,.83,2.35,3,2.56,1S92.27,53.84,92.27,53.84Z"/><path class="cls-14" d="M79.26,39.74c.88.61,1.76-2.49.19-2.21S79.26,39.74,79.26,39.74Z"/><path class="cls-14" d="M89.39,48c0-.5-1.43,0-.9.51S89.39,48,89.39,48Z"/><path class="cls-14" d="M72,30.4c.81.34,1-2.3-.21-1.82S72,30.4,72,30.4Z"/><path class="cls-14" d="M84.25,39c-.64-1.8-5.18,1.75-2.61,3S84.25,39,84.25,39Z"/><path class="cls-14" d="M96.2,54.94c-.54.34,1,1.57,1.17.64S96.2,54.94,96.2,54.94Z"/><path class="cls-14" d="M91.13,44.94c-.73-2-5.72,2-2.85,3.36S91.13,44.94,91.13,44.94Z"/><path class="cls-14" d="M92.08,48.62c-1.48.59,1.63,4.28,2.59,2.09S92.08,48.62,92.08,48.62Z"/><path class="cls-14" d="M74.77,27.49c-1.88,0,0,5.4,2,3.39S74.77,27.49,74.77,27.49Z"/><path class="cls-14" d="M93.82,49.54c.46.17.52-1.31-.15-1S93.82,49.54,93.82,49.54Z"/><path class="cls-14" d="M94,48.87c-.33.39,1.09,1,1,.2S94,48.87,94,48.87Z"/><path class="cls-14" d="M81.86,33.1C80,33,81.6,38.3,83.61,36.46S81.86,33.1,81.86,33.1Z"/><path class="cls-14" d="M81.89,34.53c.15.45,1.28-.41.65-.73S81.89,34.53,81.89,34.53Z"/><path class="cls-14" d="M81.73,33.18c-.26.3.86.74.81.15S81.73,33.18,81.73,33.18Z"/><path class="cls-14" d="M96.2,48.05c-1.77.72,2,5.11,3.13,2.47S96.2,48.05,96.2,48.05Z"/><path class="cls-14" d="M88.13,36.64c1.06-1.33-3.75-3.1-3.49-.57S88.13,36.64,88.13,36.64Z"/><path class="cls-14" d="M94.84,46.25c1.94.13.43-5.55-1.77-3.64S94.84,46.25,94.84,46.25Z"/><path class="cls-14" d="M97.79,46.53c-.87-.39-1.12,2.49.21,2S97.79,46.53,97.79,46.53Z"/><path class="cls-14" d="M100.89,51.18c2.07-.07-.12-5.92-2.24-3.67S100.89,51.18,100.89,51.18Z"/><path class="cls-14" d="M78.13,24.48c.83-.15-.4-2.38-1.12-1.34S78.13,24.48,78.13,24.48Z"/><path class="cls-14" d="M80.13,25.32c1.43-1-2.79-4.12-3.26-1.56S80.13,25.32,80.13,25.32Z"/><path class="cls-14" d="M78.53,28.75c.24,1.45,4.14-.65,2.36-1.93S78.53,28.75,78.53,28.75Z"/><path class="cls-14" d="M75.5,24.66c0,.35,1-.06.6-.4S75.5,24.66,75.5,24.66Z"/><path class="cls-14" d="M76.52,25.43c.69.64,1.86-2,.44-1.92S76.52,25.43,76.52,25.43Z"/><path class="cls-14" d="M94.57,37.32c.45-.07-.2-1.31-.61-.75S94.57,37.32,94.57,37.32Z"/><path class="cls-14" d="M78.85,17.34c.6-1.92-5.48-1.79-4.09.89S78.85,17.34,78.85,17.34Z"/><path class="cls-14" d="M74.43,48.08c1.63-.77-2.14-4.69-3.06-2.16S74.43,48.08,74.43,48.08Z"/><path class="cls-14" d="M97.37,35c-.79-.91-2.66,2.24-.85,2.38S97.37,35,97.37,35Z"/><path class="cls-14" d="M95.85,35.74c-.27.61,1.74.82,1.39-.12S95.85,35.74,95.85,35.74Z"/><path class="cls-14" d="M77.82,13.82c-1.41-.85-2.49,4-.09,3.43S77.82,13.82,77.82,13.82Z"/><path class="cls-14" d="M72.27,46.41c2,.8,2.35-5.65-.6-4.41S72.27,46.41,72.27,46.41Z"/><path class="cls-14" d="M84.82,27.16c-.24,1.58,4.5.75,3.1-1.18S84.82,27.16,84.82,27.16Z"/><path class="cls-14" d="M82.62,18.14c1-.44-1.23-2.8-1.8-1.31S82.62,18.14,82.62,18.14Z"/><path class="cls-14" d="M85,23.86c0-.58-1.64-.07-1,.55S85,23.86,85,23.86Z"/><path class="cls-14" d="M85.27,40.56c-.74.68,1.92,2.15,2,.64S85.27,40.56,85.27,40.56Z"/><path class="cls-14" d="M87.53,42.35c1.13-1.52-4.29-3.3-3.9-.5S87.53,42.35,87.53,42.35Z"/><path class="cls-14" d="M92.69,30.54c.08-1.65-4.72-.3-3.07,1.54S92.69,30.54,92.69,30.54Z"/><path class="cls-14" d="M88.43,36.48c.51-.4-1.12-1.47-1.24-.51S88.43,36.48,88.43,36.48Z"/><path class="cls-14" d="M91.7,28.21c1.65-1.33-3.75-4.78-4.1-1.63S91.7,28.21,91.7,28.21Z"/><path class="cls-14" d="M86.64,27.58c-.82,1.23,3.51,2.4,3.08.22S86.64,27.58,86.64,27.58Z"/><path class="cls-14" d="M84,40.36c0-.68-2,0-1.22.73S84,40.36,84,40.36Z"/><path class="cls-14" d="M86.83,23.77c-.86,1.36,3.86,2.49,3.33.14S86.83,23.77,86.83,23.77Z"/><path class="cls-14" d="M90.25,35.46c-.69.51,1.42,2,1.62.73S90.25,35.46,90.25,35.46Z"/><path class="cls-14" d="M87.53,25.62c-.64.59,1.67,1.85,1.72.55S87.53,25.62,87.53,25.62Z"/><path class="cls-14" d="M89.48,41.5c0,1.65,4.74-.09,2.94-1.79S89.48,41.5,89.48,41.5Z"/><path class="cls-14" d="M84.39,17.83c1.37.88,2.55-3.89.17-3.38S84.39,17.83,84.39,17.83Z"/><path class="cls-14" d="M90.5,40.74c-.32-.15-.45.91,0,.74S90.5,40.74,90.5,40.74Z"/><path class="cls-14" d="M82,14.58c.46,1.17,3.38-1.3,1.64-2.06S82,14.58,82,14.58Z"/><path class="cls-14" d="M81.42,14.19c-1,.81,2.28,2.89,2.49,1S81.42,14.19,81.42,14.19Z"/><path class="cls-14" d="M82,16.81c-.73.5,1.4,2.13,1.66.83S82,16.81,82,16.81Z"/><path class="cls-14" d="M83.49,17.75c1.73-.61-1.7-5-2.89-2.49S83.49,17.75,83.49,17.75Z"/><path class="cls-14" d="M82.36,19.84c-.94.08.2,2.7,1.11,1.63S82.36,19.84,82.36,19.84Z"/><path class="cls-14" d="M79.28,16.27c0,1.46,4.17.13,2.66-1.45S79.28,16.27,79.28,16.27Z"/><path class="cls-14" d="M83.68,25.62c-1.06-.93-2.71,3-.6,2.87S83.68,25.62,83.68,25.62Z"/><path class="cls-14" d="M81.48,22.93c0-1.82-5.21.05-3.25,1.95S81.48,22.93,81.48,22.93Z"/><path class="cls-14" d="M85.14,30.35c0-2-5.6.08-3.48,2.1S85.14,30.35,85.14,30.35Z"/><path class="cls-14" d="M86.68,41.94c.85,1.07,3.11-2.39,1.08-2.64S86.68,41.94,86.68,41.94Z"/><path class="cls-14" d="M85.06,40.27c-1,1.28,3.64,2.85,3.33.46S85.06,40.27,85.06,40.27Z"/><path class="cls-14" d="M74.5,19.93c-.63.4,1.13,1.81,1.37.72S74.5,19.93,74.5,19.93Z"/><path class="cls-14" d="M83.92,35.24c1.66-1.07-3-4.79-3.64-1.9S83.92,35.24,83.92,35.24Z"/><path class="cls-14" d="M84.82,42.42c-.71,1.4,4,2.09,3.26-.14S84.82,42.42,84.82,42.42Z"/><path class="cls-14" d="M86.82,42.47c.6-.82-2.33-1.76-2.11-.24S86.82,42.47,86.82,42.47Z"/><path class="cls-14" d="M72.63,19.17c-.26-.24-.69.76-.15.73S72.63,19.17,72.63,19.17Z"/><path class="cls-14" d="M73.84,19.79c.09-1.56-4.47-.32-2.93,1.44S73.84,19.79,73.84,19.79Z"/><path class="cls-14" d="M70.81,15.92c-2-.86-2.52,5.57.46,4.42S70.81,15.92,70.81,15.92Z"/><path class="cls-14" d="M86.6,45.73c1.76-1-2.82-5.08-3.63-2.15S86.6,45.73,86.6,45.73Z"/><path class="cls-14" d="M80.82,38.91c.35.3.87-1,.18-.95S80.82,38.91,80.82,38.91Z"/><path class="cls-14" d="M77.73,33.29c-.52.12.32,1.49.75.82S77.73,33.29,77.73,33.29Z"/><path class="cls-14" d="M68,16.89c-1.63.39,1.06,4.68,2.38,2.55S68,16.89,68,16.89Z"/><path class="cls-14" d="M79.71,35.75c-.46-1.12-3.22,1.29-1.55,2S79.71,35.75,79.71,35.75Z"/><path class="cls-14" d="M80.48,42c-.74.78,2.23,2.13,2.18.52S80.48,42,80.48,42Z"/><path class="cls-14" d="M69.3,18.27c-1.63-.89-2.6,4.64.07,3.86S69.3,18.27,69.3,18.27Z"/><path class="cls-14" d="M67.55,15.06c0-.78-2.26.1-1.38.9S67.55,15.06,67.55,15.06Z"/><path class="cls-14" d="M80.83,46.74c.82.86,2.48-2.33.7-2.37S80.83,46.74,80.83,46.74Z"/><path class="cls-14" d="M73.32,32.62c.21.7,2-.56,1.05-1.08S73.32,32.62,73.32,32.62Z"/><path class="cls-14" d="M71,27.46c-.62.14.37,1.79.89,1S71,27.46,71,27.46Z"/><path class="cls-14" d="M65.4,21.11c.49,1.54,4.44-1.36,2.28-2.48S65.4,21.11,65.4,21.11Z"/><path class="cls-14" d="M74.93,33c.57-1.85-5.3-1.69-4,.88S74.93,33,74.93,33Z"/><path class="cls-14" d="M80.71,48.71c-1.59-.63-1.84,4.56.52,3.53S80.71,48.71,80.71,48.71Z"/><path class="cls-14" d="M72.2,35.85c.21.57,1.63-.59.8-1S72.2,35.85,72.2,35.85Z"/><path class="cls-14" d="M78.9,47.21c-.65-.68-2,1.82-.57,1.86S78.9,47.21,78.9,47.21Z"/><path class="cls-14" d="M72.8,39c-.39.4,1.14,1.15,1.14.3S72.8,39,72.8,39Z"/><path class="cls-14" d="M74.42,42.67c.51,0,0-1.45-.51-.93S74.42,42.67,74.42,42.67Z"/><path class="cls-14" d="M63.21,24.29c-.49,1.38,3.94,1.44,3-.55S63.21,24.29,63.21,24.29Z"/><path class="cls-14" d="M72.12,39.28c.25-.39-1.11-.71-1,0S72.12,39.28,72.12,39.28Z"/><path class="cls-14" d="M78.09,34.42c1-.35-1-2.81-1.64-1.4S78.09,34.42,78.09,34.42Z"/><path class="cls-14" d="M74.72,33.22c-.75,1.29,3.67,2.19,3.1,0S74.72,33.22,74.72,33.22Z"/><path class="cls-14" d="M57.61,41.61c-.39.26.74,1.15.89.45S57.61,41.61,57.61,41.61Z"/><path class="cls-14" d="M58,41.43c-.22-.34-1,.62-.38.75S58,41.43,58,41.43Z"/><path class="cls-14" d="M79.6,30.69c.29.41,1.19-.84.44-1S79.6,30.69,79.6,30.69Z"/><path class="cls-14" d="M82.91,27.47c-.44.14.38,1.27.7.66S82.91,27.47,82.91,27.47Z"/><path class="cls-14" d="M72.15,33.31c.55.54,1.58-1.57.42-1.56S72.15,33.31,72.15,33.31Z"/><path class="cls-14" d="M71.12,35.84c.33.64,1.82-.93.8-1.25S71.12,35.84,71.12,35.84Z"/><path class="cls-14" d="M75.18,34.05c.33-2-5.78-1-4,1.49S75.18,34.05,75.18,34.05Z"/><path class="cls-14" d="M87.86,42.74c-.17.62,1.79.51,1.32-.34S87.86,42.74,87.86,42.74Z"/><path class="cls-14" d="M89.52,41.2c.29-1.39-4-.88-2.83.91S89.52,41.2,89.52,41.2Z"/><path class="cls-14" d="M84.26,38.84c-.59,1.22,3.48,1.73,2.82-.19S84.26,38.84,84.26,38.84Z"/><path class="cls-14" d="M70.67,31.16c.7.58,1.67-2,.32-1.86S70.67,31.16,70.67,31.16Z"/><path class="cls-14" d="M60.55,24c1.22-.37-1-3.48-1.92-1.81S60.55,24,60.55,24Z"/><path class="cls-14" d="M57.82,21.28c.54-.32-.9-1.58-1.15-.66S57.82,21.28,57.82,21.28Z"/><path class="cls-14" d="M64.78,23.09c-.33-1.16-3.34.9-1.77,1.79S64.78,23.09,64.78,23.09Z"/><path class="cls-14" d="M57.94,21.63c.82.69,2-2.34.4-2.2S57.94,21.63,57.94,21.63Z"/><path class="cls-14" d="M73.3,27.91c-1.62,1.15,3.25,4.68,3.76,1.74S73.3,27.91,73.3,27.91Z"/><path class="cls-14" d="M70.35,26.12c-.18.47,1.35.5,1-.18S70.35,26.12,70.35,26.12Z"/><path class="cls-14" d="M81.42,28.91c-.83-1.69-4.88,2.32-2.21,3.25S81.42,28.91,81.42,28.91Z"/><path class="cls-14" d="M71,26.18c.66.33,1-1.86-.07-1.52S71,26.18,71,26.18Z"/><path class="cls-14" d="M82.06,29c-.1,1,2.87.32,1.92-.86S82.06,29,82.06,29Z"/><path class="cls-14" d="M65.61,23.84c.27.68,2-.76,1-1.19S65.61,23.84,65.61,23.84Z"/><path class="cls-14" d="M93.42,32.85c1.06,1.15,3.34-3,1-3.09S93.42,32.85,93.42,32.85Z"/><path class="cls-14" d="M77.47,27.5c1.94-.21-.52-5.57-2.37-3.31S77.47,27.5,77.47,27.5Z"/><path class="cls-14" d="M75.18,23.51c-.21-1.62-4.64.52-2.72,2S75.18,23.51,75.18,23.51Z"/><path class="cls-14" d="M89.73,29.06c.28-.16-.45-.82-.58-.35S89.73,29.06,89.73,29.06Z"/><path class="cls-14" d="M69.42,21.73c-.43-.26-.79,1.2-.06,1S69.42,21.73,69.42,21.73Z"/><path class="cls-14" d="M93.62,26.88c-1.78-.8-2.36,5.08.38,4.05S93.62,26.88,93.62,26.88Z"/><path class="cls-14" d="M94,30.3c.92.69,2-2.63.3-2.4S94,30.3,94,30.3Z"/><path class="cls-14" d="M81.35,24.59c-.32.62,1.77.95,1.46-.05S81.35,24.59,81.35,24.59Z"/><path class="cls-14" d="M72.89,21.25c-.41.41,1.19,1.2,1.19.32S72.89,21.25,72.89,21.25Z"/><path class="cls-14" d="M83.71,25.44c1.43-.27-.74-4.1-2-2.3S83.71,25.44,83.71,25.44Z"/><path class="cls-14" d="M77.31,21.27c-1,.78,2.2,2.85,2.42,1S77.31,21.27,77.31,21.27Z"/><path class="cls-14" d="M96.13,25.18c-.17-1.79-5.13.42-3.06,2.14S96.13,25.18,96.13,25.18Z"/><path class="cls-14" d="M61.62,14.47c-1,.07.16,2.79,1.13,1.69S61.62,14.47,61.62,14.47Z"/><path class="cls-14" d="M70,26.66c.54-.77-2.18-1.58-2-.19S70,26.66,70,26.66Z"/><path class="cls-14" d="M75.06,11.64c.31-.58-1.64-.91-1.36,0S75.06,11.64,75.06,11.64Z"/><path class="cls-14" d="M73.15,13.86c.74-.87-2.47-2.17-2.35-.46S73.15,13.86,73.15,13.86Z"/><path class="cls-14" d="M86.32,27.52c1.09.83,2.41-3.11.37-2.83S86.32,27.52,86.32,27.52Z"/><path class="cls-14" d="M64.15,29.77c-1,1.51,4.31,2.8,3.73.17S64.15,29.77,64.15,29.77Z"/><path class="cls-14" d="M87.49,21.35c-.89,1.15,3.28,2.58,3,.41S87.49,21.35,87.49,21.35Z"/><path class="cls-14" d="M68.87,12.93c-.2,2,5.59.63,3.74-1.65S68.87,12.93,68.87,12.93Z"/><path class="cls-14" d="M69.94,20.56c.71.94,2.72-2,1-2.26S69.94,20.56,69.94,20.56Z"/><path class="cls-14" d="M82.3,26c-1,.57,1.6,2.87,2.06,1.21S82.3,26,82.3,26Z"/><path class="cls-14" d="M72.26,7.75c-.26-.29-.86.75-.26.79S72.26,7.75,72.26,7.75Z"/><path class="cls-14" d="M76.16,29.57c1.54-1.24-3.51-4.46-3.84-1.51S76.16,29.57,76.16,29.57Z"/><path class="cls-14" d="M72.31,16.49c1.19-1.16-3.28-3.44-3.31-1S72.31,16.49,72.31,16.49Z"/><path class="cls-14" d="M70.82,14.07c-1.14,1.49,4.23,3.34,3.88.54S70.82,14.07,70.82,14.07Z"/><path class="cls-14" d="M72.5,29.84c.49-.05-.13-1.4-.59-.83S72.5,29.84,72.5,29.84Z"/><path class="cls-14" d="M72.5,16.2c0-.33-.94.13-.54.42S72.5,16.2,72.5,16.2Z"/><path class="cls-14" d="M67.81,11.28c-.76,2,5.59,2.26,4.34-.63S67.81,11.28,67.81,11.28Z"/><path class="cls-14" d="M65.56,10.52c1.92.76,2.25-5.46-.59-4.25S65.56,10.52,65.56,10.52Z"/><path class="cls-14" d="M67.3,25.32c-1,1.45,4.11,2.91,3.65.32S67.3,25.32,67.3,25.32Z"/><path class="cls-14" d="M63.25,6.9c0,.71,2,0,1.3-.72S63.25,6.9,63.25,6.9Z"/><path class="cls-14" d="M64.16,4.58c-1.51-1.27-3.68,4.27-.75,4S64.16,4.58,64.16,4.58Z"/><path class="cls-14" d="M66,22c.12.49,1.4-.3.77-.7S66,22,66,22Z"/><path class="cls-14" d="M52.25,7.24c-1.23.88,2.48,3.53,2.85,1.3S52.25,7.24,52.25,7.24Z"/><path class="cls-14" d="M53.56,8.17c-.63,0-.08,1.81.61,1.16S53.56,8.17,53.56,8.17Z"/><path class="cls-14" d="M10.58,42.36c1.48-.52-1.43-4.25-2.46-2.14S10.58,42.36,10.58,42.36Z"/><path class="cls-14" d="M8.84,43.76c1.62,1.25,3.62-4.61.58-4.22S8.84,43.76,8.84,43.76Z"/><path class="cls-14" d="M55,11.22c-.58.2.56,1.68,1,.85S55,11.22,55,11.22Z"/><path class="cls-14" d="M67.74,22.51c.91-.67-1.91-2.63-2.16-1S67.74,22.51,67.74,22.51Z"/><path class="cls-14" d="M66.63,22.68c.91-.16-.43-2.6-1.23-1.47S66.63,22.68,66.63,22.68Z"/><path class="cls-14" d="M77.34,31.55c.8-.95-2.7-2.32-2.54-.47S77.34,31.55,77.34,31.55Z"/><path class="cls-14" d="M66.48,25.08c-1.14,1.81,5.13,3.33,4.44.21S66.48,25.08,66.48,25.08Z"/><path class="cls-14" d="M65.13,22.45c.45-.69-2-1.32-1.72-.1S65.13,22.45,65.13,22.45Z"/><path class="cls-14" d="M54.68,13.72c-2,0,0,5.79,2.15,3.62S54.68,13.72,54.68,13.72Z"/><path class="cls-14" d="M57.69,17.73c.14-.39-1.11-.42-.85.14S57.69,17.73,57.69,17.73Z"/><path class="cls-14" d="M48.4,10.89c.38-.27-.76-1.1-.88-.41S48.4,10.89,48.4,10.89Z"/><path class="cls-14" d="M48.61,11.71c-.7.37,1,2,1.38.88S48.61,11.71,48.61,11.71Z"/><path class="cls-14" d="M57.5,21.11c1.67-.14-.35-4.79-2-2.87S57.5,21.11,57.5,21.11Z"/><path class="cls-14" d="M54.91,19.71c-.3,1.16,3.32.89,2.41-.66S54.91,19.71,54.91,19.71Z"/><path class="cls-14" d="M52.59,18.08c-.19.71,2,.57,1.49-.39S52.59,18.08,52.59,18.08Z"/><path class="cls-14" d="M45,8.66c-.09-1.87-5.38.2-3.3,2.1S45,8.66,45,8.66Z"/><path class="cls-14" d="M43.68,10.05C44.25,9.45,42,8.4,42,9.63S43.68,10.05,43.68,10.05Z"/><path class="cls-14" d="M69.35,32.74c-1.68-.61-1.8,4.8.63,3.67S69.35,32.74,69.35,32.74Z"/><path class="cls-14" d="M50.1,20.94c.57,1.95,5.61-1.57,2.94-3S50.1,20.94,50.1,20.94Z"/><path class="cls-14" d="M52.15,21.32c.1.78,2.26-.25,1.33-1S52.15,21.32,52.15,21.32Z"/><path class="cls-14" d="M46.1,16.77c.31,1.06,3.07-.85,1.61-1.66S46.1,16.77,46.1,16.77Z"/><path class="cls-14" d="M66.41,33.66c.15-.41-1.16-.44-.89.15S66.41,33.66,66.41,33.66Z"/><path class="cls-14" d="M58.54,29.7c1.65.67,2-4.68-.48-3.66S58.54,29.7,58.54,29.7Z"/><path class="cls-14" d="M67.26,36.44c-1,.18.48,2.91,1.37,1.65S67.26,36.44,67.26,36.44Z"/><path class="cls-14" d="M56.09,27.56c-1.28.72,2,3.7,2.62,1.58S56.09,27.56,56.09,27.56Z"/><path class="cls-14" d="M55.56,27.45c-.36-.12-.33,1,.16.76S55.56,27.45,55.56,27.45Z"/><path class="cls-14" d="M55.5,28.19c-.89.13.31,2.54,1.13,1.48S55.5,28.19,55.5,28.19Z"/><path class="cls-14" d="M40.12,13c-.65-1.41-4,1.8-1.88,2.61S40.12,13,40.12,13Z"/><path class="cls-14" d="M60.41,32.61c-.85-.89-2.6,2.41-.75,2.46S60.41,32.61,60.41,32.61Z"/><path class="cls-14" d="M54.56,30.51c.47-.21-.6-1.36-.87-.63S54.56,30.51,54.56,30.51Z"/><path class="cls-14" d="M63.67,16.94C62,16,60.76,21.74,63.6,21S63.67,16.94,63.67,16.94Z"/><path class="cls-14" d="M50.06,32.57c-.7-.87-2.51,2-.85,2.17S50.06,32.57,50.06,32.57Z"/><path class="cls-14" d="M49.53,33.1c.57.31.9-1.64,0-1.36S49.53,33.1,49.53,33.1Z"/><path class="cls-14" d="M45.84,33.47c-1.37,0-.12,3.92,1.36,2.51S45.84,33.47,45.84,33.47Z"/><path class="cls-14" d="M58.73,19.89c-.86-.54-1.58,2.47-.09,2.13S58.73,19.89,58.73,19.89Z"/><path class="cls-14" d="M45.74,33.55c-.37,0,0,1.07.39.67S45.74,33.55,45.74,33.55Z"/><path class="cls-14" d="M60.49,19.86c1.21-1-2.92-3.52-3.12-1.14S60.49,19.86,60.49,19.86Z"/><path class="cls-14" d="M52.93,21.62c-1.88.38,1,5.39,2.61,3S52.93,21.62,52.93,21.62Z"/><path class="cls-14" d="M62.7,9.68c-1.9.74,2.07,5.47,3.31,2.67S62.7,9.68,62.7,9.68Z"/><path class="cls-14" d="M58.68,15.61c-.84,0,0,2.41.88,1.52S58.68,15.61,58.68,15.61Z"/><path class="cls-14" d="M48.73,26.45c-.42.08.23,1.2.59.67S48.73,26.45,48.73,26.45Z"/><path class="cls-14" d="M62.4,17.55c-.31-1.61-4.61.83-2.58,2.21S62.4,17.55,62.4,17.55Z"/><path class="cls-14" d="M59.51,19.38c.31.17.5-.88,0-.73S59.51,19.38,59.51,19.38Z"/><path class="cls-14" d="M53.86,23c.72-1.36-3.87-2.1-3.2.1S53.86,23,53.86,23Z"/><path class="cls-14" d="M49.77,22.94c-.44.45,1.29,1.28,1.28.33S49.77,22.94,49.77,22.94Z"/><path class="cls-14" d="M63,15.11c-.37-.56-1.61,1-.63,1.24S63,15.11,63,15.11Z"/><path class="cls-14" d="M50.7,23.72c1.13-1.76-5-3.3-4.33-.24S50.7,23.72,50.7,23.72Z"/><path class="cls-14" d="M65.55,13.69c.66.51,1.49-1.87.25-1.72S65.55,13.69,65.55,13.69Z"/><path class="cls-14" d="M63.14,11.75c-1.36-.18-.56,3.86,1.06,2.63S63.14,11.75,63.14,11.75Z"/><path class="cls-14" d="M57.05,16.81c.2,1,2.71-.54,1.5-1.33S57.05,16.81,57.05,16.81Z"/><path class="cls-14" d="M65.7,11c0,.45,1.3,0,.82-.47S65.7,11,65.7,11Z"/><path class="cls-14" d="M53.39,15.48c-1.36.66,1.85,3.92,2.6,1.78S53.39,15.48,53.39,15.48Z"/><path class="cls-14" d="M38.21,26.76c.74-1-2.87-2.16-2.59-.3S38.21,26.76,38.21,26.76Z"/><path class="cls-14" d="M57.91,10.89c-2,.14.33,5.83,2.34,3.54S57.91,10.89,57.91,10.89Z"/><path class="cls-14" d="M53.93,16.19c.51-.2-.56-1.45-.88-.7S53.93,16.19,53.93,16.19Z"/><path class="cls-14" d="M37.17,27.57c2-.46-1.24-5.84-2.92-3.21S37.17,27.57,37.17,27.57Z"/><path class="cls-14" d="M41.81,20.17c-1,.94,2.68,2.8,2.71.78S41.81,20.17,41.81,20.17Z"/><path class="cls-14" d="M63.26,10.87c1.86-.66-1.81-5.34-3.1-2.69S63.26,10.87,63.26,10.87Z"/><path class="cls-14" d="M43.65,19.05c-.37-1.83-5.27,1-2.95,2.55S43.65,19.05,43.65,19.05Z"/><path class="cls-14" d="M59.22,10.67c1.07,1,3-3,.76-3S59.22,10.67,59.22,10.67Z"/><path class="cls-14" d="M38.38,19.43c-1.27.1.25,3.64,1.49,2.19S38.38,19.43,38.38,19.43Z"/><path class="cls-14" d="M44.08,17.62c-.06-1.88-5.36.1-3.32,2S44.08,17.62,44.08,17.62Z"/><path class="cls-14" d="M44.78,15.78c-.21,1.5,4.28.67,2.93-1.15S44.78,15.78,44.78,15.78Z"/><path class="cls-14" d="M56,9.21c-.23-.3-.88.63-.32.72S56,9.21,56,9.21Z"/><path class="cls-14" d="M39.37,17.8c-.38.74,2.11,1.13,1.73-.06S39.37,17.8,39.37,17.8Z"/><path class="cls-14" d="M45.64,9.84c-1.58,1,2.8,4.57,3.43,1.84S45.64,9.84,45.64,9.84Z"/><path class="cls-14" d="M42.2,16.24c-.33-.27-.76,1-.13.87S42.2,16.24,42.2,16.24Z"/><path class="cls-14" d="M39.74,17.16c-.75.62,1.75,2.17,1.89.72S39.74,17.16,39.74,17.16Z"/><path class="cls-14" d="M43.85,11.81c-.47,1,2.8,1.39,2.26-.16S43.85,11.81,43.85,11.81Z"/><path class="cls-14" d="M37.29,20.68c.31.45,1.28-.87.48-1S37.29,20.68,37.29,20.68Z"/><path class="cls-14" d="M39.35,17.94c0-.46-1.31,0-.82.47S39.35,17.94,39.35,17.94Z"/><path class="cls-14" d="M40.26,18.1c1.67.34,1-4.77-1.1-3.37S40.26,18.1,40.26,18.1Z"/><path class="cls-14" d="M15.54,36.26c.19-.31-.86-.54-.73,0S15.54,36.26,15.54,36.26Z"/><path class="cls-14" d="M40.54,13.38c-.31,0,.1.9.39.53S40.54,13.38,40.54,13.38Z"/><path class="cls-14" d="M12.18,36.53c-.74.66,1.85,2.15,2,.67S12.18,36.53,12.18,36.53Z"/><path class="cls-14" d="M13,37.66c.06-1-3-.2-1.94,1S13,37.66,13,37.66Z"/><path class="cls-14" d="M39.23,15.36c.68-.56-1.56-2-1.7-.67S39.23,15.36,39.23,15.36Z"/><path class="cls-14" d="M33.64,21.06c.22-.53-1.49-.64-1.17.14S33.64,21.06,33.64,21.06Z"/><path class="cls-14" d="M12.88,34.89c-.52-.44-1.27,1.5-.25,1.41S12.88,34.89,12.88,34.89Z"/><path class="cls-14" d="M40.88,9.53c-.29.35,1,.86,1,.17S40.88,9.53,40.88,9.53Z"/><path class="cls-14" d="M41.34,9.51c.34-.28-.8-1-.85-.31S41.34,9.51,41.34,9.51Z"/><path class="cls-14" d="M30.36,20.73c-.95-.78-2.28,2.71-.44,2.54S30.36,20.73,30.36,20.73Z"/><path class="cls-14" d="M33.18,17.17c.26.52,1.48-.73.66-1S33.18,17.17,33.18,17.17Z"/><path class="cls-14" d="M47.55,20.72c-1.72.59,1.62,4.94,2.83,2.5S47.55,20.72,47.55,20.72Z"/><path class="cls-14" d="M41.44,13.2c-1.29-.79-2.31,3.65-.11,3.13S41.44,13.2,41.44,13.2Z"/><path class="cls-14" d="M46.32,21.89c.68.33,1-1.94-.1-1.57S46.32,21.89,46.32,21.89Z"/><path class="cls-14" d="M36.23,9.61c0-.94-2.68.05-1.66,1S36.23,9.61,36.23,9.61Z"/><path class="cls-14" d="M47.81,22.42C49.28,21.16,44.24,18.14,44,21S47.81,22.42,47.81,22.42Z"/><path class="cls-14" d="M53.27,25.33c-1.06-.21-.67,3,.69,2.14S53.27,25.33,53.27,25.33Z"/><path class="cls-14" d="M55.85,30.57c.89.39,1.17-2.54-.2-2S55.85,30.57,55.85,30.57Z"/><path class="cls-14" d="M23.61,0c-.37,0-.15,1.06.29.72S23.61,0,23.61,0Z"/><path class="cls-14" d="M52.38,28c.77.05.17-2.2-.7-1.44S52.38,28,52.38,28Z"/><path class="cls-14" d="M49.52,27c.79.7,2-2.23.45-2.14S49.52,27,49.52,27Z"/><path class="cls-14" d="M32.63,11.66c-.23-.3-.87.64-.31.72S32.63,11.66,32.63,11.66Z"/><path class="cls-14" d="M37.72,16.13c-1.38-.57-1.69,4,.39,3.11S37.72,16.13,37.72,16.13Z"/><path class="cls-14" d="M33.74,13.05c-1.45-.72-2.14,4.12.17,3.37S33.74,13.05,33.74,13.05Z"/><path class="cls-14" d="M39.84,15.26c-1.67,1.08,3,4.83,3.68,1.91S39.84,15.26,39.84,15.26Z"/><path class="cls-14" d="M34.94,15.6c.17-.71-2-.52-1.46.41S34.94,15.6,34.94,15.6Z"/><path class="cls-14" d="M16.59,13.94c-.34,1.48,4.23,1,3-.9S16.59,13.94,16.59,13.94Z"/><path class="cls-14" d="M16.12,11.83c-2,.24.61,5.77,2.5,3.39S16.12,11.83,16.12,11.83Z"/><path class="cls-14" d="M46,20.37c.18,1.23,3.52-.46,2-1.58S46,20.37,46,20.37Z"/><path class="cls-14" d="M34.65,19c.9.26.79-2.58-.45-1.91S34.65,19,34.65,19Z"/><path class="cls-14" d="M17.86,15.49c.33-.23-.65-1-.76-.36S17.86,15.49,17.86,15.49Z"/><path class="cls-14" d="M39.68,20.35c1-.73-2.06-2.8-2.32-1S39.68,20.35,39.68,20.35Z"/><path class="cls-14" d="M50.05,24.17c1.72.22.69-4.91-1.37-3.34S50.05,24.17,50.05,24.17Z"/><path class="cls-14" d="M43.94,21.11c-.95,0,0,2.72,1,1.7S43.94,21.11,43.94,21.11Z"/><path class="cls-14" d="M29.8,20.56c.85-.54-1.52-2.43-1.84-1S29.8,20.56,29.8,20.56Z"/><path class="cls-14" d="M18.52,19.44c.74,0,.06-2.12-.74-1.36S18.52,19.44,18.52,19.44Z"/><path class="cls-14" d="M45.73,23.69c.7-1.59-4.54-2.08-3.61.36S45.73,23.69,45.73,23.69Z"/><path class="cls-14" d="M38.84,24.14c1.67-1-2.73-4.82-3.48-2S38.84,24.14,38.84,24.14Z"/><path class="cls-14" d="M25.7,22.49c1.45,0,.15-4.16-1.43-2.66S25.7,22.49,25.7,22.49Z"/><path class="cls-14" d="M38.3,25.52c0,.84,2.41.1,1.55-.82S38.3,25.52,38.3,25.52Z"/><path class="cls-14" d="M24.56,18.87c-1.88-.46-1.38,5.39,1.11,3.89S24.56,18.87,24.56,18.87Z"/><path class="cls-14" d="M15.68,30.7c-.68-1.67-4.82,1.89-2.33,3S15.68,30.7,15.68,30.7Z"/><path class="cls-14" d="M17.71,22.57c1.77,1.12,3.28-5.06.2-4.38S17.71,22.57,17.71,22.57Z"/><path class="cls-14" d="M13.66,19.25c-.77.61,1.73,2.26,1.91.79S13.66,19.25,13.66,19.25Z"/><path class="cls-14" d="M38.68,29.77c1.2,1.48,4.28-3.39,1.44-3.7S38.68,29.77,38.68,29.77Z"/><path class="cls-14" d="M43.31,28.67c-.54-.38-1.09,1.55-.11,1.37S43.31,28.67,43.31,28.67Z"/><path class="cls-14" d="M13.59,18.49c-1.65-.84-2.44,4.69.19,3.84S13.59,18.49,13.59,18.49Z"/><path class="cls-14" d="M39.33,29.42c-.56.94,2.65,1.64,2.26,0S39.33,29.42,39.33,29.42Z"/><path class="cls-14" d="M29.81,26c-.27-1-2.75.74-1.45,1.47S29.81,26,29.81,26Z"/><path class="cls-14" d="M38.27,30.14c.3-.16-.46-.86-.6-.37S38.27,30.14,38.27,30.14Z"/><path class="cls-14" d="M45.54,32.94c.11.44,1.25-.28.68-.64S45.54,32.94,45.54,32.94Z"/><path class="cls-14" d="M23.84,26c-.1-.45-1.29.26-.71.63S23.84,26,23.84,26Z"/><path class="cls-14" d="M16.58,23.73c-.95.13.34,2.72,1.21,1.58S16.58,23.73,16.58,23.73Z"/><path class="cls-14" d="M22.24,29.83c-1.21.05.11,3.46,1.34,2.13S22.24,29.83,22.24,29.83Z"/><path class="cls-14" d="M21.89,16.33c0,1.05,3-.08,1.86-1.15S21.89,16.33,21.89,16.33Z"/><path class="cls-14" d="M22.53,12.14c-.21-1.76-5.06.54-3,2.19S22.53,12.14,22.53,12.14Z"/><path class="cls-14" d="M35.83,25.52c-1.55-1.48-4.29,4.39-1.09,4.33S35.83,25.52,35.83,25.52Z"/><path class="cls-14" d="M25.28,21.5c-1.76-1.07-3.15,5-.14,4.3S25.28,21.5,25.28,21.5Z"/><path class="cls-14" d="M25.48,27.53c1.82.31.95-5.21-1.31-3.62S25.48,27.53,25.48,27.53Z"/><path class="cls-14" d="M25,23.3c-.38-1.16-3.35,1.05-1.72,1.88S25,23.3,25,23.3Z"/><path class="cls-14" d="M20.84,15c.34-1.71-4.91-1-3.46,1.15S20.84,15,20.84,15Z"/><path class="cls-14" d="M27.35,33.41c1.54.6,1.76-4.39-.5-3.4S27.35,33.41,27.35,33.41Z"/><path class="cls-14" d="M27.64,19.42c.66,1.9,5.48-1.83,2.76-3.16S27.64,19.42,27.64,19.42Z"/><path class="cls-14" d="M21.91,36.92c.43.66,1.9-1.21.75-1.45S21.91,36.92,21.91,36.92Z"/><path class="cls-14" d="M18.73,42.3c.78-.58-1.63-2.27-1.85-.83S18.73,42.3,18.73,42.3Z"/><path class="cls-14" d="M29.51,24.62c.48-.21-.58-1.37-.87-.65S29.51,24.62,29.51,24.62Z"/><path class="cls-14" d="M24.79,30.26c.11-.57-1.63-.33-1.15.39S24.79,30.26,24.79,30.26Z"/><path class="cls-14" d="M31.21,20.88c.8-.08-.19-2.29-1-1.37S31.21,20.88,31.21,20.88Z"/><path class="cls-14" d="M35.46,14.22c.23-1.09-3.11-.7-2.21.7S35.46,14.22,35.46,14.22Z"/><path class="cls-14" d="M15.4,37.54c-1.36.53,1.46,3.91,2.35,1.91S15.4,37.54,15.4,37.54Z"/><path class="cls-14" d="M15.44,40.25c.85.23.68-2.44-.47-1.78S15.44,40.25,15.44,40.25Z"/><path class="cls-14" d="M17.76,36.2c0-1.11-3.21-.17-2.08,1.07S17.76,36.2,17.76,36.2Z"/><path class="cls-14" d="M12.46,42.06c0-.35-1-.15-.67.27S12.46,42.06,12.46,42.06Z"/><path class="cls-14" d="M17.75,32.32c-.32.38,1.07.92,1,.18S17.75,32.32,17.75,32.32Z"/><path class="cls-14" d="M19.51,30.19c.3.08.24-.88-.18-.64S19.51,30.19,19.51,30.19Z"/><path class="cls-14" d="M31.37,13.52c.39-.07-.18-1.11-.52-.63S31.37,13.52,31.37,13.52Z"/><path class="cls-14" d="M32.58,10.21c-.53-.41-1.2,1.52-.19,1.4S32.58,10.21,32.58,10.21Z"/><path class="cls-14" d="M17.52,31.36c.77.48,1.39-2.17.08-1.87S17.52,31.36,17.52,31.36Z"/><path class="cls-14" d="M8.59,40.92c-.19.61,1.74.57,1.3-.28S8.59,40.92,8.59,40.92Z"/><path class="cls-14" d="M14.39,32.4c-.4.23.64,1.15.83.49S14.39,32.4,14.39,32.4Z"/><path class="cls-14" d="M21.87,28.35c.74-2-5.68-2.19-4.37.71S21.87,28.35,21.87,28.35Z"/><path class="cls-14" d="M14.37,21.69c-.32-.25-.7.89-.11.81S14.37,21.69,14.37,21.69Z"/><path class="cls-14" d="M24,35.81c-1.91-.39-1.19,5.45,1.25,3.86S24,35.81,24,35.81Z"/><path class="cls-14" d="M14.19,25.13c-.13.38,1.07.39.81-.15S14.19,25.13,14.19,25.13Z"/><path class="cls-14" d="M18.54,32.15c-.94.24.66,2.71,1.4,1.46S18.54,32.15,18.54,32.15Z"/><path class="cls-14" d="M21.38,41.13c.5,1.95,5.6-1.36,3-2.91S21.38,41.13,21.38,41.13Z"/><path class="cls-14" d="M5.93,15c.08-.49-1.42-.24-1,.37S5.93,15,5.93,15Z"/><path class="cls-14" d="M24.91,36c.45-1.68-4.8-1.33-3.5.93S24.91,36,24.91,36Z"/><path class="cls-14" d="M28,37c2-.26-.68-5.67-2.51-3.31S28,37,28,37Z"/><path class="cls-14" d="M17.56,31.77c.51-.46-1.31-1.47-1.36-.44S17.56,31.77,17.56,31.77Z"/><path class="cls-14" d="M7.11,36.92c.89-.84-2.36-2.56-2.42-.74S7.11,36.92,7.11,36.92Z"/><path class="cls-14" d="M26.3,16c-.71-.54-1.6,2-.27,1.85S26.3,16,26.3,16Z"/><path class="cls-14" d="M22,34.9c-.91.4,1.13,2.63,1.67,1.23S22,34.9,22,34.9Z"/><path class="cls-14" d="M18.63,35.35c1.14-.28-.75-3.28-1.67-1.79S18.63,35.35,18.63,35.35Z"/><path class="cls-14" d="M17.43,34.84c1.05-1-2.8-3-2.87-.88S17.43,34.84,17.43,34.84Z"/><path class="cls-14" d="M8.78,32.11c.27.35,1-.75.36-.83S8.78,32.11,8.78,32.11Z"/><path class="cls-14" d="M12.14,35.26c.71,1.1,3.19-2,1.27-2.42S12.14,35.26,12.14,35.26Z"/><path class="cls-14" d="M6.91,39.87c-.12-.6-1.74.32-1,.84S6.91,39.87,6.91,39.87Z"/><path class="cls-14" d="M11.22,44.36c.78.72,2.08-2.22.49-2.16S11.22,44.36,11.22,44.36Z"/><path class="cls-14" d="M24.37,39.42c-.14-.88-2.53.35-1.46,1.15S24.37,39.42,24.37,39.42Z"/><path class="cls-14" d="M5.53,40.3c-2,.07.13,5.65,2.15,3.49S5.53,40.3,5.53,40.3Z"/></g><g class="cls-15"><path class="cls-16" d="M23.51,21.81c-.23.78-2.25-.64-1.17-1.23S23.51,21.81,23.51,21.81Z"/><path class="cls-16" d="M20.58,33.93c-.17-.28.8-.52.69,0S20.58,33.93,20.58,33.93Z"/><path class="cls-16" d="M18.28,53c.79,0,.13,2.25-.74,1.46S18.28,53,18.28,53Z"/><path class="cls-16" d="M23.21,24.06c-.66-.62,1.75-1.91,1.79-.56S23.21,24.06,23.21,24.06Z"/><path class="cls-16" d="M18.86,52.74c.26-.64,1.84.72.89,1.12S18.86,52.74,18.86,52.74Z"/><path class="cls-16" d="M24.12,20.32c.87-1.5,4.32,2.45,1.81,3.12S24.12,20.32,24.12,20.32Z"/><path class="cls-16" d="M21.2,43.14c-.16-.84,2.41-.5,1.7.56S21.2,43.14,21.2,43.14Z"/><path class="cls-16" d="M21.22,43.5c-.36-1,2.83-1.07,2.17.37S21.22,43.5,21.22,43.5Z"/><path class="cls-16" d="M26.13,28.19c-1.48.88-2.56-4.2-.06-3.57S26.13,28.19,26.13,28.19Z"/><path class="cls-16" d="M24.17,42.31c.87.58-1.64,2.52-2,1S24.17,42.31,24.17,42.31Z"/><path class="cls-16" d="M29.59,41.73c.38.93-2.64,1.12-2.06-.26S29.59,41.73,29.59,41.73Z"/><path class="cls-16" d="M14.57,46c-.35-.35,1-1,1-.28S14.57,46,14.57,46Z"/><path class="cls-16" d="M32.54,38.34c1.76,1-2.67,5.08-3.54,2.21S32.54,38.34,32.54,38.34Z"/><path class="cls-16" d="M17.67,44.8c-1.19.29-.85-3.42.72-2.46S17.67,44.8,17.67,44.8Z"/><path class="cls-16" d="M6.52,46.59c.84.91-2.59,2.44-2.52.58S6.52,46.59,6.52,46.59Z"/><path class="cls-16" d="M29.77,37.51c.6-.09.28,1.7-.44,1.17S29.77,37.51,29.77,37.51Z"/><path class="cls-16" d="M24.75,37.92c-1.67-1,2.88-4.84,3.58-2S24.75,37.92,24.75,37.92Z"/><path class="cls-16" d="M17.55,43.94c-.24,1.08-3.1-.64-1.71-1.54S17.55,43.94,17.55,43.94Z"/><path class="cls-16" d="M8.56,49c.84,1-2.88,2.44-2.7.47S8.56,49,8.56,49Z"/><path class="cls-16" d="M24.09,37.74c-1,.42-1.24-2.79.25-2.2S24.09,37.74,24.09,37.74Z"/><path class="cls-16" d="M12.54,43.8c.09-.49,1.41.25.79.68S12.54,43.8,12.54,43.8Z"/><path class="cls-16" d="M33,30c-.86.18-.54-2.46.56-1.74S33,30,33,30Z"/><path class="cls-16" d="M19.34,36.07c1-1.64,4.73,2.74,2,3.45S19.34,36.07,19.34,36.07Z"/><path class="cls-16" d="M4.49,49.31c.46.43-1.24,1.35-1.27.39S4.49,49.31,4.49,49.31Z"/><path class="cls-16" d="M11.43,40.51c1.1-1.81,5.21,3.09,2.14,3.84S11.43,40.51,11.43,40.51Z"/><path class="cls-16" d="M9.77,43.93c1.34.87-2.44,3.87-2.95,1.53S9.77,43.93,9.77,43.93Z"/><path class="cls-16" d="M30.9,26.61c1.85.4-1.06,5.3-2.61,2.94S30.9,26.61,30.9,26.61Z"/><path class="cls-16" d="M7.89,44.48c-.49.08-.26-1.38.34-1S7.89,44.48,7.89,44.48Z"/><path class="cls-16" d="M7.87,43.8c.25.44-1.25.72-1,0S7.87,43.8,7.87,43.8Z"/><path class="cls-16" d="M22.85,30.72c1.79.29-.77,5.15-2.37,3S22.85,30.72,22.85,30.72Z"/><path class="cls-16" d="M22.53,32.12c-.23.4-1.17-.66-.49-.84S22.53,32.12,22.53,32.12Z"/><path class="cls-16" d="M23,30.82c.2.35-1,.56-.82,0S23,30.82,23,30.82Z"/><path class="cls-16" d="M5.84,42.56c1.6,1-3,4.61-3.55,1.8S5.84,42.56,5.84,42.56Z"/><path class="cls-16" d="M16,33c-.78-1.5,4.29-2.29,3.53.13S16,33,16,33Z"/><path class="cls-16" d="M7.53,41.06c-1.93-.26.68-5.53,2.45-3.22S7.53,41.06,7.53,41.06Z"/><path class="cls-16" d="M4.58,40.75c.94-.21.62,2.66-.59,1.89S4.58,40.75,4.58,40.75Z"/><path class="cls-16" d="M.63,44.69c-2-.47,1.28-5.77,2.92-3.14S.63,44.69.63,44.69Z"/><path class="cls-16" d="M28.2,23c-.78-.31.87-2.25,1.37-1.09S28.2,23,28.2,23Z"/><path class="cls-16" d="M26.08,23.43c-1.21-1.25,3.54-3.49,3.5-.89S26.08,23.43,26.08,23.43Z"/><path class="cls-16" d="M27,27.11C26.45,28.48,23,25.65,25,24.75S27,27.11,27,27.11Z"/><path class="cls-16" d="M30.75,23.7c-.1.33-1-.26-.51-.52S30.75,23.7,30.75,23.7Z"/><path class="cls-16" d="M29.6,24.25c-.82.5-1.44-2.3-.06-2S29.6,24.25,29.6,24.25Z"/><path class="cls-16" d="M9.56,32.36c-.44-.16.45-1.25.74-.62S9.56,32.36,9.56,32.36Z"/><path class="cls-16" d="M28.9,15.86c-.21-2,5.72-.68,3.84,1.67S28.9,15.86,28.9,15.86Z"/><path class="cls-16" d="M27.18,46.87c-1.44-1.08,3-4.18,3.43-1.51S27.18,46.87,27.18,46.87Z"/><path class="cls-16" d="M7.27,29.53c1-.74,2.16,2.71.36,2.5S7.27,29.53,7.27,29.53Z"/><path class="cls-16" d="M8.61,30.55c.15.66-1.86.47-1.34-.39S8.61,30.55,8.61,30.55Z"/><path class="cls-16" d="M30.61,12.61C32.16,12.05,32.26,17,30,16S30.61,12.61,30.61,12.61Z"/><path class="cls-16" d="M29.64,45.65c-2.11.4-1.2-6,1.44-4.2S29.64,45.65,29.64,45.65Z"/><path class="cls-16" d="M21.12,24.32c-.08,1.59-4.57-.16-2.81-1.78S21.12,24.32,21.12,24.32Z"/><path class="cls-16" d="M25,15.9c-.87-.62,1.76-2.5,2-.92S25,15.9,25,15.9Z"/><path class="cls-16" d="M21.59,21c.1-.57,1.63.25.93.75S21.59,21,21.59,21Z"/><path class="cls-16" d="M18,37.36c.59.82-2.3,1.73-2.08.24S18,37.36,18,37.36Z"/><path class="cls-16" d="M15.47,38.67c-.81-1.71,4.85-2.39,3.92.28S15.47,38.67,15.47,38.67Z"/><path class="cls-16" d="M12.74,26.07c.24-1.63,4.68.64,2.7,2.12S12.74,26.07,12.74,26.07Z"/><path class="cls-16" d="M15.74,32.74c-.42-.49,1.38-1.22,1.32-.26S15.74,32.74,15.74,32.74Z"/><path class="cls-16" d="M14.16,24c-1.35-1.62,4.62-3.95,4.34-.78S14.16,24,14.16,24Z"/><path class="cls-16" d="M19.24,24.36c.57,1.37-3.9,1.67-3.06-.38S19.24,24.36,19.24,24.36Z"/><path class="cls-16" d="M19.33,37.42c.15-.67,1.92.4,1.06.95S19.33,37.42,19.33,37.42Z"/><path class="cls-16" d="M19.82,20.6c.56,1.5-4.28,1.67-3.3-.52S19.82,20.6,19.82,20.6Z"/><path class="cls-16" d="M14.16,31.38c.57.64-1.79,1.68-1.74.4S14.16,31.38,14.16,31.38Z"/><path class="cls-16" d="M18.76,22.27c.51.71-2,1.48-1.79.2S18.76,22.27,18.76,22.27Z"/><path class="cls-16" d="M13.72,37.46c-.37,1.61-4.62-1-2.53-2.34S13.72,37.46,13.72,37.46Z"/><path class="cls-16" d="M23.37,15.25c-1.52.59-1.73-4.32.5-3.35S23.37,15.25,23.37,15.25Z"/><path class="cls-16" d="M12.87,36.51c.35-.08.27,1-.19.72S12.87,36.51,12.87,36.51Z"/><path class="cls-16" d="M26.33,12.53c-.69,1.06-3.06-1.94-1.21-2.35S26.33,12.53,26.33,12.53Z"/><path class="cls-16" d="M27,12.26c.82,1-2.81,2.39-2.64.47S27,12.26,27,12.26Z"/><path class="cls-16" d="M25.9,14.72c.63.63-1.78,1.82-1.78.49S25.9,14.72,25.9,14.72Z"/><path class="cls-16" d="M24.27,15.35c-1.57-.94,2.64-4.53,3.32-1.87S24.27,15.35,24.27,15.35Z"/><path class="cls-16" d="M25,17.62c.9.27-.73,2.61-1.41,1.37S25,17.62,25,17.62Z"/><path class="cls-16" d="M28.68,14.73c-.26,1.43-4.1-.7-2.32-2S28.68,14.73,28.68,14.73Z"/><path class="cls-16" d="M22.54,23c1.22-.71,2.06,3.47,0,2.93S22.54,23,22.54,23Z"/><path class="cls-16" d="M25.22,20.82c.4-1.77,5.11,1.08,2.81,2.55S25.22,20.82,25.22,20.82Z"/><path class="cls-16" d="M20.17,27.37c.44-1.9,5.48,1.19,3,2.76S20.17,27.37,20.17,27.37Z"/><path class="cls-16" d="M16.38,38.43c-1,.89-2.58-3-.53-2.79S16.38,38.43,16.38,38.43Z"/><path class="cls-16" d="M18.29,37.12c.71,1.45-4.12,2.08-3.34-.21S18.29,37.12,18.29,37.12Z"/><path class="cls-16" d="M32.66,19.25c.53.52-1.46,1.56-1.49.44S32.66,19.25,32.66,19.25Z"/><path class="cls-16" d="M20.41,32.41C19,31,24.29,28.31,24.35,31.26S20.41,32.41,20.41,32.41Z"/><path class="cls-16" d="M18.11,39.28c.42,1.51-4.31,1.26-3.17-.79S18.11,39.28,18.11,39.28Z"/><path class="cls-16" d="M16.14,38.93c-.43-.92,2.63-1.26,2.12.18S16.14,38.93,16.14,38.93Z"/><path class="cls-16" d="M34.64,18.87c.31-.18.53.89,0,.75S34.64,18.87,34.64,18.87Z"/><path class="cls-16" d="M33.33,19.25c.22-1.55,4.45.56,2.59,2S33.33,19.25,33.33,19.25Z"/><path class="cls-16" d="M37.06,16.05c2.09-.46,1.38,5.95-1.32,4.24S37.06,16.05,37.06,16.05Z"/><path class="cls-16" d="M15.72,42.17c-1.53-1.33,3.76-4.43,4-1.4S15.72,42.17,15.72,42.17Z"/><path class="cls-16" d="M22.73,36.62c-.41.23-.66-1.15,0-1S22.73,36.62,22.73,36.62Z"/><path class="cls-16" d="M26.86,31.72c.49.22-.61,1.4-.89.66S26.86,31.72,26.86,31.72Z"/><path class="cls-16" d="M39.62,17.55c1.52.7-2,4.38-2.84,2S39.62,17.55,39.62,17.55Z"/><path class="cls-16" d="M24.43,33.74c.68-1,2.91,1.9,1.13,2.26S24.43,33.74,24.43,33.74Z"/><path class="cls-16" d="M22.45,39.7c.57.92-2.6,1.66-2.24.09S22.45,39.7,22.45,39.7Z"/><path class="cls-16" d="M38.09,18.65c1.77-.55,1.63,5.06-.83,3.78S38.09,18.65,38.09,18.65Z"/><path class="cls-16" d="M40.43,15.85c.2-.76,2.2.55,1.18,1.15S40.43,15.85,40.43,15.85Z"/><path class="cls-16" d="M21.18,44.3c-1,.67-2-2.78-.22-2.47S21.18,44.3,21.18,44.3Z"/><path class="cls-16" d="M31.31,31.93c-.33.64-1.84-.94-.81-1.27S31.31,31.93,31.31,31.93Z"/><path class="cls-16" d="M34.63,27.33c.58.26-.72,1.68-1.07.8S34.63,27.33,34.63,27.33Z"/><path class="cls-16" d="M41.35,22.2c-.79,1.42-4.09-2.2-1.76-2.88S41.35,22.2,41.35,22.2Z"/><path class="cls-16" d="M29.66,32c-.19-1.94,5.53-.62,3.7,1.64S29.66,32,29.66,32Z"/><path class="cls-16" d="M20.9,46.24c1.69-.29.91,4.84-1.2,3.37S20.9,46.24,20.9,46.24Z"/><path class="cls-16" d="M31.78,35.32c-.32.51-1.48-.91-.6-1.11S31.78,35.32,31.78,35.32Z"/><path class="cls-16" d="M23,45.13c.77-.53,1.57,2.17.19,1.94S23,45.13,23,45.13Z"/><path class="cls-16" d="M30.57,38.28c.31.48-1.34.91-1.18.08S30.57,38.28,30.57,38.28Z"/><path class="cls-16" d="M28.26,41.57c-.5-.1.25-1.44.68-.81S28.26,41.57,28.26,41.57Z"/><path class="cls-16" d="M42.87,25.75c.21,1.45-4.15.64-2.83-1.12S42.87,25.75,42.87,25.75Z"/><path class="cls-16" d="M31.18,38.7c-.17-.43,1.23-.49,1,.15S31.18,38.7,31.18,38.7Z"/><path class="cls-16" d="M26.28,32.76c-.89-.54,1.52-2.57,1.89-1S26.28,32.76,26.28,32.76Z"/><path class="cls-16" d="M29.82,32.24c.48,1.42-4,1.42-3-.58S29.82,32.24,29.82,32.24Z"/><path class="cls-16" d="M44.94,43.84c.34.33-.94,1-.95.27S44.94,43.84,44.94,43.84Z"/><path class="cls-16" d="M44.59,43.58c.28-.29.83.8.23.81S44.59,43.58,44.59,43.58Z"/><path class="cls-16" d="M25.54,28.8c-.37.35-1-1.06-.24-1S25.54,28.8,25.54,28.8Z"/><path class="cls-16" d="M22.93,25c.4.22-.62,1.17-.82.51S22.93,25,22.93,25Z"/><path class="cls-16" d="M32.33,32.83c-.65.43-1.25-1.84-.1-1.61S32.33,32.83,32.33,32.83Z"/><path class="cls-16" d="M32.84,35.52c-.45.56-1.6-1.27-.54-1.38S32.84,35.52,32.84,35.52Z"/><path class="cls-16" d="M29.21,33c.08-2,5.87.15,3.62,2.24S29.21,33,29.21,33Z"/><path class="cls-16" d="M15.06,39c0,.65-1.85.15-1.22-.59S15.06,39,15.06,39Z"/><path class="cls-16" d="M13.74,37.15c0-1.42,4.09-.08,2.6,1.45S13.74,37.15,13.74,37.15Z"/><path class="cls-16" d="M19.37,35.87c.33,1.32-3.76,1-2.73-.74S19.37,35.87,19.37,35.87Z"/><path class="cls-16" d="M34.2,31c-.8.43-1.25-2.28.06-1.89S34.2,31,34.2,31Z"/><path class="cls-16" d="M45.54,26c-1.12-.6,1.68-3.21,2.23-1.39S45.54,26,45.54,26Z"/><path class="cls-16" d="M48.75,23.86c-.48-.42,1.19-1.37,1.25-.42S48.75,23.86,48.75,23.86Z"/><path class="cls-16" d="M41.57,24.27c.55-1.07,3.09,1.54,1.38,2.1S41.57,24.27,41.57,24.27Z"/><path class="cls-16" d="M48.56,24.18c-1,.52-1.51-2.69,0-2.24S48.56,24.18,48.56,24.18Z"/><path class="cls-16" d="M32.26,27.31c1.36,1.46-4.11,4-4,1S32.26,27.31,32.26,27.31Z"/><path class="cls-16" d="M35.51,26.14c.08.5-1.43.23-1-.38S35.51,26.14,35.51,26.14Z"/><path class="cls-16" d="M24.11,26.7c1.15-1.5,4.32,3.24,1.52,3.62S24.11,26.7,24.11,26.7Z"/><path class="cls-16" d="M34.85,26.07c-.7.2-.58-2,.37-1.48S34.85,26.07,34.85,26.07Z"/><path class="cls-16" d="M23.46,26.68c-.1,1-2.89-.25-1.72-1.22S23.46,26.68,23.46,26.68Z"/><path class="cls-16" d="M40.6,24.84c-.4.61-1.76-1.13-.69-1.35S40.6,24.84,40.6,24.84Z"/><path class="cls-16" d="M11.56,28.19c-1.26.92-2.68-3.57-.38-3.22S11.56,28.19,11.56,28.19Z"/><path class="cls-16" d="M28.26,26.09c-1.87-.58,1.6-5.36,3-2.77S28.26,26.09,28.26,26.09Z"/><path class="cls-16" d="M31.29,22.63c.52-1.55,4.44,1.42,2.26,2.52S31.29,22.63,31.29,22.63Z"/><path class="cls-16" d="M15.93,25.21c-.25-.22.6-.72.64-.23S15.93,25.21,15.93,25.21Z"/><path class="cls-16" d="M37.29,22c.46-.18.53,1.32-.16,1S37.29,22,37.29,22Z"/><path class="cls-16" d="M12.54,22.31c1.91-.44,1.32,5.44-1.16,3.89S12.54,22.31,12.54,22.31Z"/><path class="cls-16" d="M11.55,25.59c-1.05.5-1.47-3,.17-2.4S11.55,25.59,11.55,25.59Z"/><path class="cls-16" d="M25,22.47c.2.68-1.92.59-1.42-.33S25,22.47,25,22.47Z"/><path class="cls-16" d="M34,20.86c.32.49-1.39.95-1.22.09S34,20.86,34,20.86Z"/><path class="cls-16" d="M22.54,22.85C21.2,22.3,24.07,19,24.92,21S22.54,22.85,22.54,22.85Z"/><path class="cls-16" d="M29.64,20c.81,1-2.72,2.36-2.57.49S29.64,20,29.64,20Z"/><path class="cls-16" d="M10.42,20.14c.52-1.71,4.94,1.43,2.58,2.71S10.42,20.14,10.42,20.14Z"/><path class="cls-16" d="M46.36,16.44c.94.25-.71,2.71-1.44,1.44S46.36,16.44,46.36,16.44Z"/><path class="cls-16" d="M35.72,26.73c-.38-.86,2.45-1.11,2,.2S35.72,26.73,35.72,26.73Z"/><path class="cls-16" d="M33.74,11c-.19-.63,1.79-.57,1.33.3S33.74,11,33.74,11Z"/><path class="cls-16" d="M35.18,13.57c-.56-1,2.84-1.64,2.38,0S35.18,13.57,35.18,13.57Z"/><path class="cls-16" d="M19.57,24.37c-1.23.6-1.75-3.52.2-2.85S19.57,24.37,19.57,24.37Z"/><path class="cls-16" d="M40.86,30.94c.64,1.67-4.77,1.89-3.68-.56S40.86,30.94,40.86,30.94Z"/><path class="cls-16" d="M19.64,18.09c.64,1.31-3.73,1.89-3-.19S19.64,18.09,19.64,18.09Z"/><path class="cls-16" d="M39.56,13.5c-.2,2-5.61-.48-3.35-2.36S39.56,13.5,39.56,13.5Z"/><path class="cls-16" d="M37,20.77c-.89.78-2.27-2.51-.51-2.41S37,20.77,37,20.77Z"/><path class="cls-16" d="M23.82,23.67c.86.76-2.14,2.5-2.26.78S23.82,23.67,23.82,23.67Z"/><path class="cls-16" d="M37.25,7.76c.32-.24.69.9.1.82S37.25,7.76,37.25,7.76Z"/><path class="cls-16" d="M29.13,28.39c-1.27-1.53,4.32-3.7,4.06-.74S29.13,28.39,29.13,28.39Z"/><path class="cls-16" d="M35.48,16.31c-.93-1.37,3.89-2.72,3.44-.28S35.48,16.31,35.48,16.31Z"/><path class="cls-16" d="M37.41,14.23c.83,1.69-4.79,2.44-3.9-.23S37.41,14.23,37.41,14.23Z"/><path class="cls-16" d="M32.66,29.36c-.47-.14.4-1.34.75-.69S32.66,29.36,32.66,29.36Z"/><path class="cls-16" d="M35.35,16c.11-.31.9.31.45.52S35.35,16,35.35,16Z"/><path class="cls-16" d="M40.92,12.09c.36,2.07-5.93,1.12-4.13-1.47S40.92,12.09,40.92,12.09Z"/><path class="cls-16" d="M43.27,11.79c-2,.36-1.13-5.8,1.42-4.06S43.27,11.79,43.27,11.79Z"/><path class="cls-16" d="M38.65,26c.7,1.61-4.6,2-3.64-.41S38.65,26,38.65,26Z"/><path class="cls-16" d="M46.25,8.69c-.14.7-2-.35-1.13-.95S46.25,8.69,46.25,8.69Z"/><path class="cls-16" d="M45.82,6.24c1.72-.94,2.77,4.91-.06,4.09S45.82,6.24,45.82,6.24Z"/><path class="cls-16" d="M40.54,23c-.2.46-1.3-.57-.61-.83S40.54,23,40.54,23Z"/><path class="cls-16" d="M57,11.19c1,1.11-3.13,3-3,.72S57,11.19,57,11.19Z"/><path class="cls-16" d="M55.5,11.84c.62.11-.27,1.79-.83,1S55.5,11.84,55.5,11.84Z"/><path class="cls-16" d="M90.91,53.83c-1.35-.8,2.24-3.89,2.83-1.62S90.91,53.83,90.91,53.83Z"/><path class="cls-16" d="M92.34,55.55c-1.83.9-2.64-5.24.27-4.26S92.34,55.55,92.34,55.55Z"/><path class="cls-16" d="M53.5,14.56c.54.31-.87,1.53-1.11.64S53.5,14.56,53.5,14.56Z"/><path class="cls-16" d="M38.77,23.12c-.76-.84,2.39-2.21,2.31-.51S38.77,23.12,38.77,23.12Z"/><path class="cls-16" d="M39.83,23.5c-.86-.34.94-2.46,1.49-1.2S39.83,23.5,39.83,23.5Z"/><path class="cls-16" d="M27.58,30.09c-.59-1.09,3.11-1.75,2.59,0S27.58,30.09,27.58,30.09Z"/><path class="cls-16" d="M39.5,25.88c.76,2-5.68,2.26-4.39-.67S39.5,25.88,39.5,25.88Z"/><path class="cls-16" d="M41.35,23.57c-.31-.77,2.19-.91,1.71.24S41.35,23.57,41.35,23.57Z"/><path class="cls-16" d="M53.31,17.06c2,.44-1.18,5.68-2.82,3.13S53.31,17.06,53.31,17.06Z"/><path class="cls-16" d="M49.57,20.4c-.06-.41,1.17-.19.81.31S49.57,20.4,49.57,20.4Z"/><path class="cls-16" d="M60,15.53c-.32-.34,1-.93.94-.23S60,15.53,60,15.53Z"/><path class="cls-16" d="M59.66,16.29c.61.5-1.41,1.76-1.53.59S59.66,16.29,59.66,16.29Z"/><path class="cls-16" d="M49.09,23.76c-1.61-.47,1.29-4.63,2.51-2.43S49.09,23.76,49.09,23.76Z"/><path class="cls-16" d="M51.91,22.89c.06,1.2-3.44.23-2.24-1.12S51.91,22.89,51.91,22.89Z"/><path class="cls-16" d="M54.5,21.75c0,.74-2.1.16-1.38-.67S54.5,21.75,54.5,21.75Z"/><path class="cls-16" d="M63.81,14c.46-1.82,5.23,1.25,2.82,2.7S63.81,14,63.81,14Z"/><path class="cls-16" d="M64.82,15.63c-.44-.69,2-1.28,1.7-.08S64.82,15.63,64.82,15.63Z"/><path class="cls-16" d="M35.18,32.82c1.78-.26.82,5.07-1.34,3.48S35.18,32.82,35.18,32.82Z"/><path class="cls-16" d="M56.38,25c-.94,1.8-5.19-2.63-2.29-3.55S56.38,25,56.38,25Z"/><path class="cls-16" d="M54.29,25c-.24.75-2.16-.68-1.1-1.22S54.29,25,54.29,25Z"/><path class="cls-16" d="M61.12,21.74c-.51,1-2.84-1.43-1.25-1.94S61.12,21.74,61.12,21.74Z"/><path class="cls-16" d="M37.89,34.31c-.07-.43,1.22-.2.84.32S37.89,34.31,37.89,34.31Z"/><path class="cls-16" d="M46.38,32c-1.75.33-1-5,1.19-3.5S46.38,32,46.38,32Z"/><path class="cls-16" d="M36.5,36.87c1,.37-1,2.75-1.66,1.34S36.5,36.87,36.5,36.87Z"/><path class="cls-16" d="M49.2,30.36c1.11,1-2.71,3.23-2.88,1S49.2,30.36,49.2,30.36Z"/><path class="cls-16" d="M49.75,30.35c.37,0,.12,1.07-.31.72S49.75,30.35,49.75,30.35Z"/><path class="cls-16" d="M49.66,31.1c.85.29-.81,2.43-1.4,1.22S49.66,31.1,49.66,31.1Z"/><path class="cls-16" d="M67.74,19.18c.91-1.25,3.61,2.56,1.32,2.93S67.74,19.18,67.74,19.18Z"/><path class="cls-16" d="M44,34.46c1-.71,2.07,2.87.24,2.56S44,34.46,44,34.46Z"/><path class="cls-16" d="M50.12,33.56c-.42-.31.85-1.22,1-.46S50.12,33.56,50.12,33.56Z"/><path class="cls-16" d="M43.86,18.46c1.85-.64,1.91,5.28-.74,4S43.86,18.46,43.86,18.46Z"/><path class="cls-16" d="M54.12,36.46c.87-.72,2.08,2.44.41,2.29S54.12,36.46,54.12,36.46Z"/><path class="cls-16" d="M54.55,37.08c-.62.19-.56-1.78.3-1.32S54.55,37.08,54.55,37.08Z"/><path class="cls-16" d="M58.09,38.17c1.35.24-.65,3.87-1.83,2.19S58.09,38.17,58.09,38.17Z"/><path class="cls-16" d="M48.12,22.32c1-.36,1.07,2.73-.33,2.11S48.12,22.32,48.12,22.32Z"/><path class="cls-16" d="M58.18,38.27c.36.08-.21,1-.52.58S58.18,38.27,58.18,38.27Z"/><path class="cls-16" d="M46.41,22c-1-1.26,3.55-2.88,3.28-.51S46.41,22,46.41,22Z"/><path class="cls-16" d="M53.48,25.16c1.76.74-2.06,5.08-3.15,2.43S53.48,25.16,53.48,25.16Z"/><path class="cls-16" d="M46.24,11.52c1.72,1.11-3.11,5-3.76,2S46.24,11.52,46.24,11.52Z"/><path class="cls-16" d="M49,18.14c.82.17-.48,2.36-1.17,1.31S49,18.14,49,18.14Z"/><path class="cls-16" d="M56.64,30.72c.39.16-.46,1.14-.71.54S56.64,30.72,56.64,30.72Z"/><path class="cls-16" d="M45,19.3c.63-1.51,4.36,1.73,2.1,2.68S45,19.3,45,19.3Z"/><path class="cls-16" d="M47.46,21.67c-.34.1-.32-1,.15-.72S47.46,21.67,47.46,21.67Z"/><path class="cls-16" d="M52.29,26.33c-.44-1.48,4.21-1.3,3.11.73S52.29,26.33,52.29,26.33Z"/><path class="cls-16" d="M56.31,27.07c.34.54-1.52,1-1.32.07S56.31,27.07,56.31,27.07Z"/><path class="cls-16" d="M44.88,16.79c.47-.47,1.38,1.33.38,1.34S44.88,16.79,44.88,16.79Z"/><path class="cls-16" d="M55.24,27.65c-.76-1.94,5.54-2.25,4.3.63S55.24,27.65,55.24,27.65Z"/><path class="cls-16" d="M42.66,14.9c-.75.37-1.09-2.12.09-1.73S42.66,14.9,42.66,14.9Z"/><path class="cls-16" d="M45.41,13.47c1.36.1-.22,3.9-1.57,2.37S45.41,13.47,45.41,13.47Z"/><path class="cls-16" d="M50.38,19.63c-.39.89-2.55-1.06-1.21-1.6S50.38,19.63,50.38,19.63Z"/><path class="cls-16" d="M43.05,12.2c-.09.44-1.28-.24-.71-.62S43.05,12.2,43.05,12.2Z"/><path class="cls-16" d="M54.23,19.05c1.21.91-2.58,3.48-2.9,1.23S54.23,19.05,54.23,19.05Z"/><path class="cls-16" d="M66.89,33.1c-.53-1.14,3.24-1.56,2.6.21S66.89,33.1,66.89,33.1Z"/><path class="cls-16" d="M50.7,13.66c2,.54-1.47,5.65-3,3S50.7,13.66,50.7,13.66Z"/><path class="cls-16" d="M53.56,19.64c-.46-.3.83-1.31,1-.52S53.56,19.64,53.56,19.64Z"/><path class="cls-16" d="M67.75,34.09c-1.9-.85,2.37-5.48,3.5-2.57S67.75,34.09,67.75,34.09Z"/><path class="cls-16" d="M64.66,25.92c.76,1.12-3.18,2.23-2.81.23S64.66,25.92,64.66,25.92Z"/><path class="cls-16" d="M45.46,12.58c-1.69-1,2.83-4.88,3.56-2S45.46,12.58,45.46,12.58Z"/><path class="cls-16" d="M63.08,24.47c.72-1.73,5,2,2.39,3.07S63.08,24.47,63.08,24.47Z"/><path class="cls-16" d="M49.46,13.18c-1.25.8-2.32-3.55-.15-3.08S49.46,13.18,49.46,13.18Z"/><path class="cls-16" d="M68.17,25.87c1.22.35-1,3.52-1.9,1.86S68.17,25.87,68.17,25.87Z"/><path class="cls-16" d="M62.93,23c.43-1.82,5.24,1.16,2.86,2.65S62.93,23,62.93,23Z"/><path class="cls-16" d="M62.61,21c-.09,1.51-4.33-.19-2.65-1.71S62.61,21,62.61,21Z"/><path class="cls-16" d="M52.93,12.39c.27-.25.73.79.17.77S52.93,12.39,52.93,12.39Z"/><path class="cls-16" d="M67.52,24.09c.23.8-2.29.68-1.69-.41S67.52,24.09,67.52,24.09Z"/><path class="cls-16" d="M62.94,15c1.35,1.3-3.65,3.94-3.73,1.13S62.94,15,62.94,15Z"/><path class="cls-16" d="M65.05,22c.38-.19.56,1.08,0,.89S65.05,22,65.05,22Z"/><path class="cls-16" d="M67.28,23.38c.61.76-2.14,1.78-2,.33S67.28,23.38,67.28,23.38Z"/><path class="cls-16" d="M64.31,17.33c.26,1.06-3,.8-2.19-.6S64.31,17.33,64.31,17.33Z"/><path class="cls-16" d="M69,27.32c-.39.37-1.08-1.11-.27-1.1S69,27.32,69,27.32Z"/><path class="cls-16" d="M67.51,24.22c.1-.44,1.28.26.71.63S67.51,24.22,67.51,24.22Z"/><path class="cls-16" d="M66.59,24.2c-1.71,0-.09-4.88,1.73-3.09S66.59,24.2,66.59,24.2Z"/><path class="cls-16" d="M87.25,46.87c-.12-.34,1-.36.72.12S87.25,46.87,87.25,46.87Z"/><path class="cls-16" d="M67.24,19.52c.3.1-.27.86-.49.44S67.24,19.52,67.24,19.52Z"/><path class="cls-16" d="M90.49,47.8c.6.79-2.24,1.74-2,.27S90.49,47.8,90.49,47.8Z"/><path class="cls-16" d="M89.5,48.75c.15-1,3,.39,1.72,1.33S89.5,48.75,89.5,48.75Z"/><path class="cls-16" d="M68.14,21.71c-.56-.67,1.91-1.62,1.79-.31S68.14,21.71,68.14,21.71Z"/><path class="cls-16" d="M72.49,28.4c-.11-.56,1.6-.33,1.12.38S72.49,28.4,72.49,28.4Z"/><path class="cls-16" d="M90.12,46.05c.61-.33,1,1.72,0,1.43S90.12,46.05,90.12,46.05Z"/><path class="cls-16" d="M67.66,15.67c.22.41-1.16.65-1,0S67.66,15.67,67.66,15.67Z"/><path class="cls-16" d="M67.21,15.57c-.27-.34,1-.79.91-.14S67.21,15.57,67.21,15.57Z"/><path class="cls-16" d="M75.77,28.73c1.1-.58,1.71,3.11-.07,2.58S75.77,28.73,75.77,28.73Z"/><path class="cls-16" d="M73.71,24.68c-.36.46-1.31-1-.45-1.11S73.71,24.68,73.71,24.68Z"/><path class="cls-16" d="M58.93,25.34c1.57.91-2.57,4.52-3.27,1.89S58.93,25.34,58.93,25.34Z"/><path class="cls-16" d="M66.4,19.16c1.41-.52,1.54,4-.52,3.1S66.4,19.16,66.4,19.16Z"/><path class="cls-16" d="M59.9,26.72c-.74.19-.58-2.09.4-1.52S59.9,26.72,59.9,26.72Z"/><path class="cls-16" d="M72.2,16.67c.22-.91,2.62.57,1.44,1.32S72.2,16.67,72.2,16.67Z"/><path class="cls-16" d="M58.34,27c-1.2-1.53,4.34-3.49,4-.6S58.34,27,58.34,27Z"/><path class="cls-16" d="M52.41,28.73c1.08,0,.05,3.1-1.1,2S52.41,28.73,52.41,28.73Z"/><path class="cls-16" d="M48.85,33.36c-1,.21-.65-2.72.59-1.95S48.85,33.36,48.85,33.36Z"/><path class="cls-16" d="M86.47,9.73c.37,0-.06,1.07-.43.65S86.47,9.73,86.47,9.73Z"/><path class="cls-16" d="M52.75,31.54c-.76-.11.27-2.19,1-1.28S52.75,31.54,52.75,31.54Z"/><path class="cls-16" d="M55.75,31.13c-.91.53-1.54-2.59,0-2.19S55.75,31.13,55.75,31.13Z"/><path class="cls-16" d="M75.34,19.39c.28-.25.72.79.16.76S75.34,19.39,75.34,19.39Z"/><path class="cls-16" d="M69.46,22.77c1.47-.29.89,4.21-1,3S69.46,22.77,69.46,22.77Z"/><path class="cls-16" d="M74,20.54c1.56-.43,1.28,4.45-.83,3.26S74,20.54,74,20.54Z"/><path class="cls-16" d="M67.56,21.49c1.42,1.4-3.94,4.14-4,1.16S67.56,21.49,67.56,21.49Z"/><path class="cls-16" d="M72.3,22.79c0-.72,2.07-.11,1.34.69S72.3,22.79,72.3,22.79Z"/><path class="cls-16" d="M90.61,24.78c0,1.52-4.35.18-2.79-1.48S90.61,24.78,90.61,24.78Z"/><path class="cls-16" d="M91.49,22.8c1.92.63-1.74,5.54-3.12,2.84S91.49,22.8,91.49,22.8Z"/><path class="cls-16" d="M60.49,25.29c-.41,1.17-3.36-1.14-1.69-1.95S60.49,25.29,60.49,25.29Z"/><path class="cls-16" d="M71.91,26.18c-.93.09-.26-2.68.82-1.78S71.91,26.18,71.91,26.18Z"/><path class="cls-16" d="M89.06,26.05c-.28-.29.83-.81.82-.2S89.06,26.05,89.06,26.05Z"/><path class="cls-16" d="M66.71,26.52c-.8-.91,2.57-2.34,2.47-.53S66.71,26.52,66.71,26.52Z"/><path class="cls-16" d="M55.8,28.22c-1.73-.12.28-4.95,2-3S55.8,28.22,55.8,28.22Z"/><path class="cls-16" d="M62.38,26.42c.93.21-.55,2.67-1.32,1.47S62.38,26.42,62.38,26.42Z"/><path class="cls-16" d="M76.35,28.67c-.72-.69,2-2.08,2-.58S76.35,28.67,76.35,28.67Z"/><path class="cls-16" d="M87.64,29.79c-.73-.13.36-2.09,1-1.18S87.64,29.79,87.64,29.79Z"/><path class="cls-16" d="M60.12,28.6c-.37-1.7,4.86-1.14,3.47,1.07S60.12,28.6,60.12,28.6Z"/><path class="cls-16" d="M66.79,30.4c-1.44-1.28,3.63-4.19,3.81-1.3S66.79,30.4,66.79,30.4Z"/><path class="cls-16" d="M80,31.37c-1.43-.25.67-4.11,1.93-2.33S80,31.37,80,31.37Z"/><path class="cls-16" d="M67,31.86c-.14.83-2.37-.38-1.35-1.11S67,31.86,67,31.86Z"/><path class="cls-16" d="M81.83,28.05c1.94-.08.29,5.55-1.85,3.59S81.83,28.05,81.83,28.05Z"/><path class="cls-16" d="M88.2,41.39c1-1.5,4.36,2.8,1.71,3.36S88.2,41.39,88.2,41.39Z"/><path class="cls-16" d="M87.82,33c-2,.75-2.23-5.6.66-4.33S87.82,33,87.82,33Z"/><path class="cls-16" d="M92.43,30.56c.65.76-2.13,1.88-2,.4S92.43,30.56,92.43,30.56Z"/><path class="cls-16" d="M65.84,36c-1.47,1.22-3.53-4.17-.69-3.91S65.84,36,65.84,36Z"/><path class="cls-16" d="M61.51,34c.61-.26.77,1.74-.15,1.37S61.51,34,61.51,34Z"/><path class="cls-16" d="M92.66,29.83c1.78-.49,1.47,5.08-.94,3.73S92.66,29.83,92.66,29.83Z"/><path class="cls-16" d="M65.27,35.49c.37,1-2.92,1.07-2.23-.4S65.27,35.49,65.27,35.49Z"/><path class="cls-16" d="M75.28,34c.45-.88,2.55,1.27,1.13,1.73S75.28,34,75.28,34Z"/><path class="cls-16" d="M66.17,36.4c-.26-.22.61-.75.66-.25S66.17,36.4,66.17,36.4Z"/><path class="cls-16" d="M58.49,37.71c-.19.41-1.17-.52-.54-.76S58.49,37.71,58.49,37.71Z"/><path class="cls-16" d="M81.13,35.2c.18-.43,1.21.5.57.76S81.13,35.2,81.13,35.2Z"/><path class="cls-16" d="M88.7,34.38c.9.32-.88,2.6-1.5,1.31S88.7,34.38,88.7,34.38Z"/><path class="cls-16" d="M82,39.25c1.17.29-.79,3.37-1.73,1.82S82,39.25,82,39.25Z"/><path class="cls-16" d="M85,26.08c-.25,1-2.94-.67-1.6-1.49S85,26.08,85,26.08Z"/><path class="cls-16" d="M85.14,21.85c.56-1.69,4.86,1.52,2.49,2.73S85.14,21.85,85.14,21.85Z"/><path class="cls-16" d="M69.47,32.35c1.81-1.14,3.34,5.14.21,4.45S69.47,32.35,69.47,32.35Z"/><path class="cls-16" d="M80.6,30.49c1.94-.71,2.11,5.52-.7,4.23S80.6,30.49,80.6,30.49Z"/><path class="cls-16" d="M79.22,36.36c-1.85-.06.09-5.3,2-3.29S79.22,36.36,79.22,36.36Z"/><path class="cls-16" d="M80.5,32.3c.6-1.07,3.08,1.68,1.31,2.18S80.5,32.3,80.5,32.3Z"/><path class="cls-16" d="M86.25,25c0-1.75,5-.06,3.16,1.8S86.25,25,86.25,25Z"/><path class="cls-16" d="M76.23,41.75c-1.62.28-.86-4.65,1.16-3.23S76.23,41.75,76.23,41.75Z"/><path class="cls-16" d="M78.7,28c-1,1.73-5-2.88-2.09-3.65S78.7,28,78.7,28Z"/><path class="cls-16" d="M80.87,46.27c-.55.56-1.62-1.56-.44-1.58S80.87,46.27,80.87,46.27Z"/><path class="cls-16" d="M82.94,52.16c-.66-.72,2-1.9,2-.44S82.94,52.16,82.94,52.16Z"/><path class="cls-16" d="M75.84,32.71c-.43-.3.84-1.23,1-.47S75.84,32.71,75.84,32.71Z"/><path class="cls-16" d="M79.36,39.17c0-.58,1.66,0,1,.6S79.36,39.17,79.36,39.17Z"/><path class="cls-16" d="M74.91,28.71c-.77-.23.64-2.21,1.22-1.15S74.91,28.71,74.91,28.71Z"/><path class="cls-16" d="M72.06,21.34c0-1.11,3.18-.07,2,1.12S72.06,21.34,72.06,21.34Z"/><path class="cls-16" d="M87.14,48.15c1.23.79-2.2,3.55-2.68,1.42S87.14,48.15,87.14,48.15Z"/><path class="cls-16" d="M86.56,50.81c-.88,0-.19-2.53.81-1.66S86.56,50.81,86.56,50.81Z"/><path class="cls-16" d="M85.08,46.38c.18-1.11,3.18.46,1.83,1.45S85.08,46.38,85.08,46.38Z"/><path class="cls-16" d="M89.12,53.16c0-.34,1,.05.61.4S89.12,53.16,89.12,53.16Z"/><path class="cls-16" d="M85.86,42.57c.24.43-1.24.69-1,0S85.86,42.57,85.86,42.57Z"/><path class="cls-16" d="M84.56,40.14c-.32,0-.07-.91.29-.59S84.56,40.14,84.56,40.14Z"/><path class="cls-16" d="M76.2,21.46c-.36-.14.4-1.06.64-.52S76.2,21.46,76.2,21.46Z"/><path class="cls-16" d="M75.66,18c.61-.3.88,1.73-.08,1.4S75.66,18,75.66,18Z"/><path class="cls-16" d="M86.27,41.68c-.84.31-.93-2.4.29-1.85S86.27,41.68,86.27,41.68Z"/><path class="cls-16" d="M93.14,52.81c.07.63-1.81.22-1.21-.53S93.14,52.81,93.14,52.81Z"/><path class="cls-16" d="M89.14,43.31c.34.31-.86,1-.91.32S89.14,43.31,89.14,43.31Z"/><path class="cls-16" d="M82.6,37.87c-.33-2.1,6-1,4.14,1.55S82.6,37.87,82.6,37.87Z"/><path class="cls-16" d="M91.27,32.81c.35-.17.51,1,0,.83S91.27,32.81,91.27,32.81Z"/><path class="cls-16" d="M79.06,44.77c2,0,.1,5.58-2,3.54S79.06,44.77,79.06,44.77Z"/><path class="cls-16" d="M90.77,36.22c0,.4-1.13.17-.77-.3S90.77,36.22,90.77,36.22Z"/><path class="cls-16" d="M85.12,42.25c.87.43-1.18,2.53-1.67,1.16S85.12,42.25,85.12,42.25Z"/><path class="cls-16" d="M80.56,50.49c-.87,1.82-5.22-2.43-2.38-3.44S80.56,50.49,80.56,50.49Z"/><path class="cls-16" d="M100.86,27.88c0-.5,1.44,0,.89.56S100.86,27.88,100.86,27.88Z"/><path class="cls-16" d="M78.11,44.79c-.11-1.74,5-.36,3.25,1.6S78.11,44.79,78.11,44.79Z"/><path class="cls-16" d="M74.88,45.15C73,44.5,76.67,39.72,78,42.4S74.88,45.15,74.88,45.15Z"/><path class="cls-16" d="M86.15,42.07c-.41-.55,1.58-1.19,1.42-.17S86.15,42.07,86.15,42.07Z"/><path class="cls-16" d="M95.38,49.17c-.7-1,2.82-2,2.52-.25S95.38,49.17,95.38,49.17Z"/><path class="cls-16" d="M80.7,24.85c.8-.39,1.17,2.29-.11,1.86S80.7,24.85,80.7,24.85Z"/><path class="cls-16" d="M81.15,44.26c.81.57-1.63,2.35-1.89.88S81.15,44.26,81.15,44.26Z"/><path class="cls-16" d="M84.4,45.37c-1.06-.5,1.38-3.07,2-1.42S84.4,45.37,84.4,45.37Z"/><path class="cls-16" d="M85.68,45.11c-.84-1.18,3.33-2.43,3-.3S85.68,45.11,85.68,45.11Z"/><path class="cls-16" d="M94.69,44.13c-.33.29-.83-.93-.18-.88S94.69,44.13,94.69,44.13Z"/><path class="cls-16" d="M90.78,46.56c-.92.94-2.73-2.59-.77-2.62S90.78,46.56,90.78,46.56Z"/><path class="cls-16" d="M95,52.11c.23-.57,1.64.65.79,1S95,52.11,95,52.11Z"/><path class="cls-16" d="M89.89,55.67c-.91.55-1.61-2.6,0-2.22S89.89,55.67,89.89,55.67Z"/><path class="cls-16" d="M78,48.23c.31-.84,2.41.85,1.2,1.41S78,48.23,78,48.23Z"/><path class="cls-16" d="M96.27,52.8c1.92.46-1.24,5.51-2.8,3S96.27,52.8,96.27,52.8Z"/></g></g><path class="cls-17" d="M56,30.79a23.35,23.35,0,0,1,10.57,9.77,29,29,0,0,1,2,4.29,23.3,23.3,0,0,1,1.19,4l6.38.47,6.74.51,4.3.31-4.3,27.11A344.2,344.2,0,0,0,44.2,72.11c-10.53-.77-32.9-1.5-32.9-1.5l-8-25.81L6.68,45l3.11.23,5.16.36,6.45.46a20.55,20.55,0,0,1,2.4-6.24A21,21,0,0,1,26.58,36a20,20,0,0,1,1.86-1.81,19,19,0,0,1,2.09-1.58,22.9,22.9,0,0,1,6.8-3,26.91,26.91,0,0,1,4.41-.78c.75-.09,1.52-.14,2.33-.17l1.21,0a29,29,0,0,1,5.29.47A24.61,24.61,0,0,1,56,30.79Z"/><path class="cls-18" d="M56,30.79a23.35,23.35,0,0,1,10.57,9.77,29,29,0,0,1,2,4.29,23.3,23.3,0,0,1,1.19,4l6.38.47,6.74.51,4.3.31-4.3,27.11A344.2,344.2,0,0,0,44.2,72.11c-10.53-.77-32.9-1.5-32.9-1.5l-8-25.81L6.68,45l3.11.23,5.16.36,6.45.46a20.55,20.55,0,0,1,2.4-6.24A21,21,0,0,1,26.58,36a20,20,0,0,1,1.86-1.81,19,19,0,0,1,2.09-1.58,22.9,22.9,0,0,1,6.8-3,26.91,26.91,0,0,1,4.41-.78c.75-.09,1.52-.14,2.33-.17l1.21,0a29,29,0,0,1,5.29.47A24.61,24.61,0,0,1,56,30.79Z"/><path class="cls-19" d="M80.69,74.09A354.33,354.33,0,0,0,44.4,69.41C35.75,68.77,19,68.16,13.32,68L7.09,47.78l2.5.18,5.17.36,8.92.64.4-2.45a18.19,18.19,0,0,1,2.07-5.32,18.58,18.58,0,0,1,2.43-3.36,17.2,17.2,0,0,1,1.62-1.58A17.68,17.68,0,0,1,32,34.88a20.18,20.18,0,0,1,6-2.64,25.57,25.57,0,0,1,4-.71q1.05-.11,2.16-.15h1.12a26,26,0,0,1,4.79.42,21.61,21.61,0,0,1,4.83,1.47,20.49,20.49,0,0,1,9.34,8.66,26.42,26.42,0,0,1,1.84,3.88,21,21,0,0,1,1,3.54l.37,2.08,2.11.16,6.39.47,8.09.61Z"/><path class="cls-20" d="M80.69,74.09A354.33,354.33,0,0,0,44.4,69.41C35.75,68.77,19,68.16,13.32,68L7.09,47.78l2.5.18,5.17.36,8.92.64.4-2.45a18.19,18.19,0,0,1,2.07-5.32,18.58,18.58,0,0,1,2.43-3.36,17.2,17.2,0,0,1,1.62-1.58A17.68,17.68,0,0,1,32,34.88a20.18,20.18,0,0,1,6-2.64,25.57,25.57,0,0,1,4-.71q1.05-.11,2.16-.15h1.12a26,26,0,0,1,4.79.42,21.61,21.61,0,0,1,4.83,1.47,20.49,20.49,0,0,1,9.34,8.66,26.42,26.42,0,0,1,1.84,3.88,21,21,0,0,1,1,3.54l.37,2.08,2.11.16,6.39.47,8.09.61Z"/><path class="cls-21" d="M58.47,37.78a18.33,18.33,0,0,0-4.08-2.54,20,20,0,0,0-4.56-1.39,24,24,0,0,0-4.52-.4H44.25q-1,0-2,.15a22.71,22.71,0,0,0-3.76.67,18.82,18.82,0,0,0-5.66,2.49,16.91,16.91,0,0,0-1.71,1.28,16.63,16.63,0,0,0-1.53,1.5,17.66,17.66,0,0,0-2.29,3.17,17.24,17.24,0,0,0-2,5l-.37,2.31-8.42-.6-4.88-.34-2.36-.17,5.88,19c2.29.08,6.48.23,11.17.42C33.13,54.26,44.5,42.08,58.47,37.78Z"/><path class="cls-22" d="M51.33,49.82c4.65,3.56,7,10,1.55,14.83C48,69,41.94,66.65,40.71,66.11a1.63,1.63,0,0,1-.19-.09h0c5.8.6,13.21-2.17,12.3-8.82-1-7.34-6.11-7-4.84-14.45a3.89,3.89,0,0,1,1.06,0S46.69,46.26,51.33,49.82Z"/><path class="cls-23" d="M52.79,57.19c.91,6.65-6.5,9.42-12.3,8.82,6.39-1.75,8.13-8,6.68-12.59s-1.36-5.33-.4-10.46a4.05,4.05,0,0,1,.79-.18,1.78,1.78,0,0,1,.39,0C46.68,50.23,51.78,49.85,52.79,57.19Z"/><path class="cls-24" d="M48,42.74a1.78,1.78,0,0,0-.39,0h0a9.3,9.3,0,0,0,1.91-5.32h0l1.08-.78s.29,4-1.55,6.1A3.89,3.89,0,0,0,48,42.74Z"/><path class="cls-25" d="M49,33.87a10.18,10.18,0,0,1,.46,3.58,9.3,9.3,0,0,1-1.91,5.32h0a4.05,4.05,0,0,0-.79.18,4.16,4.16,0,0,0-.59.25c.47-2.58.92-5.19.25-7.14A12.9,12.9,0,0,1,49,33.87Z"/><path class="cls-22" d="M47.17,53.42C48.62,58,46.88,64.26,40.49,66c-3.48-8.33,4.64-18.88,5-22.37A4,4,0,0,1,46.77,43C45.81,48.09,45.72,48.87,47.17,53.42Z"/><path class="cls-24" d="M46.43,36.07c.67,2,.22,4.56-.25,7.14a4.12,4.12,0,0,0-.66.43,7.36,7.36,0,0,0-.79-.87,5.56,5.56,0,0,0-1.14-.87c-1-5.91,1.93-7.36,1.93-7.36A4,4,0,0,1,46.43,36.07Z"/><path class="cls-23" d="M44.73,42.77a7.36,7.36,0,0,1,.79.87c-.39,3.49-8.51,14-5,22.37h0c-7.83-3-8.11-10.08-3.84-14.33C39.51,48.8,44,46.39,44.73,42.77Z"/><path class="cls-22" d="M43.59,41.9a5.56,5.56,0,0,1,1.14.87c-.7,3.62-5.22,6-8.11,8.91-4.27,4.25-4,11.37,3.84,14.33-11.78,0-12.93-12.39-6.94-16.19S43,46.84,43.59,41.9Z"/><path class="cls-26" d="M25.37,66.09a2.81,2.81,0,0,1-1.14-1.93c-1.07-5.51,11.22-8.9,12.39-6.68a2.16,2.16,0,0,1,.24.77h0C31.49,57,24.29,62.54,25.37,66.09Z"/><path class="cls-27" d="M36.62,57.48c2.52,1.44.78,5.33-1.64,7.37S29.45,68.33,27.23,68s-2.61-1.64-3-3.88a2.81,2.81,0,0,0,1.14,1.93c1.35.92,3.68.35,6.22-1,3.19-1.64,5.61-4.66,5.27-6.88A2.16,2.16,0,0,0,36.62,57.48Z"/><path class="cls-27" d="M60.33,68.48a2.93,2.93,0,0,0,.19-1c.08-2.76-3.33-6.1-7.48-7.63-3.72-1.38-7-1.65-8.27.36a4.07,4.07,0,0,0-.58,1.92c.15-2.79.42-4.5,3.09-5.18s6.7.61,9.95,2.74S63.2,66.35,60.33,68.48Z"/><path class="cls-26" d="M44.77,60.24c-.93,5.67,9.36,9.62,15.74,7.27h0a2.93,2.93,0,0,1-.19,1c-1.09,2.89-16.63.57-16.14-6.32A4.07,4.07,0,0,1,44.77,60.24Z"/><path class="cls-28" d="M98.75,46a12.36,12.36,0,0,0,.89-4.25h0l.49-.7a13.41,13.41,0,0,1-.75,4.77,1.18,1.18,0,0,0-.46.1Z"/><path class="cls-29" d="M98.75,46a1.88,1.88,0,0,0-.36.24,1.72,1.72,0,0,0-.27.27,20.28,20.28,0,0,0,.12-5.62,10.64,10.64,0,0,1,1.24-2,13.63,13.63,0,0,1,.16,2.86A12.36,12.36,0,0,1,98.75,46Z"/><path class="cls-28" d="M96.89,45.84c-.56-4.72.9-6.19.9-6.19a4,4,0,0,1,.45,1.22,20.28,20.28,0,0,1-.12,5.62,2.77,2.77,0,0,0-.3.4,4.49,4.49,0,0,0-.38-.54A2,2,0,0,0,96.89,45.84Z"/><path class="cls-30" d="M100.72,54.62c.22,3.53-2.54,6.67-4.94,7.8a10.37,10.37,0,0,0,2.76-9.07c-.62-2.75-.58-3.31-.15-7.12h0a1.88,1.88,0,0,1,.36-.24l.18-.08C98.34,51.36,100.45,50.27,100.72,54.62Z"/><path class="cls-31" d="M100.64,58.77c-1.8,3.37-4.28,3.64-4.78,3.66h-.08c2.4-1.13,5.16-4.27,4.94-7.8-.27-4.35-2.38-3.26-1.79-8.72a1.18,1.18,0,0,1,.46-.1s-1,2.83.88,4.52C102,51.81,102.61,55.1,100.64,58.77Z"/><path class="cls-31" d="M95.77,62.43h0Z"/><path class="cls-31" d="M95.77,62.43c-1.81-4.13,1.88-13,2-15.54a2.77,2.77,0,0,1,.3-.4,1.72,1.72,0,0,1,.27-.27h0c-.43,3.81-.47,4.37.15,7.12a10.37,10.37,0,0,1-2.76,9.07Z"/><path class="cls-31" d="M95.86,62.43h0Z"/><path class="cls-30" d="M97.82,46.89c-.17,2.59-3.86,11.41-2,15.54h0c-3.81.46-4.3-4.12-2.18-8.12,1.4-2.66,3.57-5.2,3.87-8h0A4.49,4.49,0,0,1,97.82,46.89Z"/><path class="cls-31" d="M91.8,53.64c3.11-4,4.85-4,5.09-7.8a2,2,0,0,1,.55.51h0c-.3,2.77-2.47,5.31-3.87,8-2.12,4-1.63,8.58,2.18,8.12C90,65.92,88.45,58,91.8,53.64Z"/><path class="cls-32" d="M88.12,67.13c-.36,0-.65-.27-.84-.8-1.19-3.34,5.81-9.26,6.48-8.06a1.36,1.36,0,0,1,.15.43h0C91,59.28,87.18,65.25,88.12,67.13Z"/><path class="cls-33" d="M93.76,58.27c1.26.29.53,3.13-.57,5s-2.65,3.78-3.87,4.37-1.62-.06-2-1.33c.19.53.48.78.84.8.85.09,2.1-1,3.38-2.65,1.55-1.94,2.63-4.46,2.41-5.78A1.36,1.36,0,0,0,93.76,58.27Z"/><path class="cls-33" d="M103,59.21a3.28,3.28,0,0,0,.08-.52,2.38,2.38,0,0,0-2.34-2.58,3,3,0,0,0-3.23,1.94,4.22,4.22,0,0,0-.23,1.25c0-1.67.15-2.77,1.27-3.75a3.19,3.19,0,0,1,3.67-.3A3,3,0,0,1,103,59.21Z"/><path class="cls-32" d="M97.54,58.05c-.36,3.47,3.45,3.13,5.57.64h0a3.28,3.28,0,0,1-.08.52c-.41,1.62-5.89,4-5.72.09A4.22,4.22,0,0,1,97.54,58.05Z"/><g class="cls-15"><path class="cls-34" d="M76,34.54c-.31.7,2,.92,1.59-.15S76,34.54,76,34.54Z"/><path class="cls-34" d="M81.84,30.77c.25-.37-1-.74-.93-.08S81.84,30.77,81.84,30.77Z"/><path class="cls-34" d="M89.14,40.54c.64.06.21-1.83-.54-1.22S89.14,40.54,89.14,40.54Z"/><path class="cls-34" d="M87.7,37.14c.07-.41-1.17-.19-.8.31S87.7,37.14,87.7,37.14Z"/><path class="cls-34" d="M82.79,40.92c0-.27-.78.11-.45.35S82.79,40.92,82.79,40.92Z"/><path class="cls-34" d="M80,32c-.06.9,2.56.2,1.68-.81S80,32,80,32Z"/><path class="cls-34" d="M78.06,28.46c.31-.33-.93-.88-.91-.21S78.06,28.46,78.06,28.46Z"/><path class="cls-34" d="M74.47,24c-.16.18.51.48.49.12S74.47,24,74.47,24Z"/><path class="cls-34" d="M71.4,29.91c.24.33,1-.7.36-.8S71.4,29.91,71.4,29.91Z"/><path class="cls-34" d="M72,38.89c-.39-.76-2.19,1.08-1,1.48S72,38.89,72,38.89Z"/><path class="cls-34" d="M66.81,35c-.13.31.9.4.71-.08S66.81,35,66.81,35Z"/><path class="cls-34" d="M68.87,40.38c0,.23.67.12.47-.17S68.87,40.38,68.87,40.38Z"/><path class="cls-34" d="M77.65,46.72c0-.32-.91-.12-.61.25S77.65,46.72,77.65,46.72Z"/><path class="cls-34" d="M57.28,26.17c-.8-.11-.34,2.28.62,1.55S57.28,26.17,57.28,26.17Z"/><path class="cls-34" d="M51.17,27.5c.55-.61-1.72-1.59-1.66-.37S51.17,27.5,51.17,27.5Z"/><path class="cls-34" d="M45.26,27.13c.52.33.94-1.48.05-1.27S45.26,27.13,45.26,27.13Z"/><path class="cls-34" d="M41.54,25.31c-.12-.79-2.27.3-1.31,1S41.54,25.31,41.54,25.31Z"/><path class="cls-34" d="M10.09,38.18c-.67,0-.12,1.93.64,1.25S10.09,38.18,10.09,38.18Z"/><path class="cls-34" d="M56.37,18.73c.48.38,1.13-1.36.21-1.27S56.37,18.73,56.37,18.73Z"/><path class="cls-34" d="M29.18,28.68c.37-.61-1.74-1.08-1.48,0S29.18,28.68,29.18,28.68Z"/><path class="cls-34" d="M25.74,35.74c.05-.57-1.62-.15-1.08.5S25.74,35.74,25.74,35.74Z"/><path class="cls-34" d="M19.35,36.16c0,.41,1.17,0,.71-.46S19.35,36.16,19.35,36.16Z"/><path class="cls-34" d="M24.88,37.61c0-.38-1.11.09-.66.47S24.88,37.61,24.88,37.61Z"/><path class="cls-34" d="M17.15,32.09c.74,0,.12-2.12-.7-1.37S17.15,32.09,17.15,32.09Z"/><path class="cls-34" d="M21.25,34.23c.92,0,0-2.63-.94-1.67S21.25,34.23,21.25,34.23Z"/><path class="cls-34" d="M32.21,31.35c-.27,0,.13.77.37.43S32.21,31.35,32.21,31.35Z"/><path class="cls-34" d="M28.26,23.38c.2.15.43-.58,0-.52S28.26,23.38,28.26,23.38Z"/><path class="cls-34" d="M37.78,21.61c-.12-.45-1.29.35-.69.69S37.78,21.61,37.78,21.61Z"/><path class="cls-34" d="M30.9,19.27c-.06.92,2.63.2,1.72-.84S30.9,19.27,30.9,19.27Z"/><path class="cls-34" d="M35.66,22c.28-.28-.8-.82-.81-.22S35.66,22,35.66,22Z"/><path class="cls-34" d="M39.2,13c-.66-.46-1.33,1.88-.14,1.67S39.2,13,39.2,13Z"/><path class="cls-34" d="M42.24,20.84c-.42-.22-.66,1.2,0,1S42.24,20.84,42.24,20.84Z"/><path class="cls-34" d="M49.33,25.34c.09.27.75-.26.37-.44S49.33,25.34,49.33,25.34Z"/><path class="cls-34" d="M47,13.16c-.24.11.3.67.43.31S47,13.16,47,13.16Z"/><path class="cls-34" d="M52.17,18.19c-.41.56,1.6,1.18,1.44.15S52.17,18.19,52.17,18.19Z"/><path class="cls-34" d="M60.3,31.06c0-.5-1.44.13-.85.61S60.3,31.06,60.3,31.06Z"/><path class="cls-34" d="M59.29,14.77c.72-.14-.39-2.06-1-1.15S59.29,14.77,59.29,14.77Z"/><path class="cls-34" d="M61.67,12.26c.51.6,1.73-1.45.55-1.55S61.67,12.26,61.67,12.26Z"/><path class="cls-34" d="M67.42,27.76c-.4-.09-.26,1.14.25.81S67.42,27.76,67.42,27.76Z"/><path class="cls-34" d="M74.46,13.73c-.2.3.85.57.74,0S74.46,13.73,74.46,13.73Z"/><path class="cls-34" d="M71.1,12.1c.81-.43-1.2-2.34-1.61-1S71.1,12.1,71.1,12.1Z"/><path class="cls-34" d="M77.94,21.36c.59.13.4-1.67-.36-1.2S77.94,21.36,77.94,21.36Z"/><path class="cls-34" d="M83.12,27.55c0-.34-1,.11-.57.43S83.12,27.55,83.12,27.55Z"/><path class="cls-34" d="M77.46,18.27c.23-.22-.64-.66-.65-.18S77.46,18.27,77.46,18.27Z"/><path class="cls-34" d="M73.46,16.36c-.5-.25-.74,1.43.06,1.17S73.46,16.36,73.46,16.36Z"/><path class="cls-34" d="M74.82,25.83c-.61-.59-1.74,1.74-.45,1.73S74.82,25.83,74.82,25.83Z"/><path class="cls-34" d="M66.6,21.38c0-.36-1,.13-.6.47S66.6,21.38,66.6,21.38Z"/><path class="cls-34" d="M62.77,24.23c-.17.71,2,.52,1.47-.41S62.77,24.23,62.77,24.23Z"/><path class="cls-34" d="M59.23,20.86c-.45-.2-.61,1.28.08,1S59.23,20.86,59.23,20.86Z"/><path class="cls-34" d="M88.43,24.31c-.25-.76-2.19.67-1.13,1.23S88.43,24.31,88.43,24.31Z"/><path class="cls-34" d="M55.81,23.69c.56-.05-.1-1.6-.65-1S55.81,23.69,55.81,23.69Z"/><path class="cls-34" d="M50.71,14.09c-.35-.14-.41,1,.11.79S50.71,14.09,50.71,14.09Z"/><path class="cls-34" d="M51.32,24.56c-.09.33,1,.26.7-.19S51.32,24.56,51.32,24.56Z"/><path class="cls-34" d="M47.27,20.14c.85.31.92-2.43-.31-1.86S47.27,20.14,47.27,20.14Z"/><path class="cls-34" d="M44.46,18c0-.22-.64-.08-.43.19S44.46,18,44.46,18Z"/><path class="cls-34" d="M44.07,14.51c-.14-.45-1.31.39-.68.73S44.07,14.51,44.07,14.51Z"/></g><path class="cls-35" d="M7.91,59.63l3.39,11s22.37.73,32.9,1.5a344.2,344.2,0,0,1,38.73,5.17l.49-3.1C80.06,51.86,28.58,37.83,7.91,59.63Z"/><path class="cls-36" d="M84.69,66.19,82.93,77.28s6.45-6.89,21.3-13.13c0,0,.86-3.81,2.5-10.57C97.87,48.79,89.67,56.42,84.69,66.19Z"/></g></g></g></svg>